<svg xmlns="http://www.w3.org/2000/svg" viewBox="0 0 500 500"><g id="freepik--background-simple--inject-3"><path d="M462.15,366.65c27.34-54.67,29.19-127.51,10.31-185.9C456.2,130.47,420,92.12,378.26,69.28,329.79,42.79,272,34.9,220,51.62c-13.69,4.4-27,8.43-39.91,15.66-52.88,29.62-42.68,102.61-61.23,128-15.61,21.36-45.46,15.06-64.28,31.43C3.81,270.88,3.68,382.53,62.27,417.43,124.43,454.45,394.42,502.05,462.15,366.65Z" style="fill:#D3E317"></path><path d="M462.15,366.65c27.34-54.67,29.19-127.51,10.31-185.9C456.2,130.47,420,92.12,378.26,69.28,329.79,42.79,272,34.9,220,51.62c-13.69,4.4-27,8.43-39.91,15.66-52.88,29.62-42.68,102.61-61.23,128-15.61,21.36-45.46,15.06-64.28,31.43C3.81,270.88,3.68,382.53,62.27,417.43,124.43,454.45,394.42,502.05,462.15,366.65Z" style="fill:#fff;opacity:0.8"></path></g><g id="freepik--Table--inject-3"><path d="M461.8,428H41.47a.5.5,0,0,1-.5-.5.5.5,0,0,1,.5-.5H461.8a.51.51,0,0,1,.5.5A.5.5,0,0,1,461.8,428Z" style="fill:#263238"></path></g><g id="freepik--Lamps--inject-3"><g style="opacity:0.30000000000000004"><path d="M118.47,132.91c-18,0-37-1.73-37-5s19.09-5,37.05-5,37.06,1.74,37.06,5S136.44,132.91,118.47,132.91Zm0-9.17c-22.49,0-36.3,2.46-36.3,4.21s13.81,4.21,36.3,4.21,36.31-2.45,36.31-4.21S141,123.74,118.47,123.74Z"></path><path d="M81.79,128.33a.38.38,0,0,1-.29-.62l31.18-37V69.81a.37.37,0,0,1,.37-.38.38.38,0,0,1,.38.38v21a.44.44,0,0,1-.09.24L82.08,128.2A.41.41,0,0,1,81.79,128.33Z"></path><path d="M155.15,128.33a.39.39,0,0,1-.28-.13L123.6,91.1a.38.38,0,0,1-.09-.24v-20a.38.38,0,0,1,.38-.38.37.37,0,0,1,.37.38V90.72l31.18,37a.38.38,0,0,1-.05.53A.36.36,0,0,1,155.15,128.33Z"></path><path d="M266.86,132.91c-18,0-37.05-1.73-37.05-5s19.09-5,37.05-5,37.06,1.74,37.06,5S284.83,132.91,266.86,132.91Zm0-9.17c-22.49,0-36.3,2.46-36.3,4.21s13.81,4.21,36.3,4.21,36.31-2.45,36.31-4.21S289.36,123.74,266.86,123.74Z"></path><path d="M230.18,128.33a.38.38,0,0,1-.24-.09.37.37,0,0,1,0-.53l31.17-37V69.81a.38.38,0,1,1,.75,0v21a.38.38,0,0,1-.09.24l-31.26,37.1A.41.41,0,0,1,230.18,128.33Z"></path><path d="M303.54,128.33a.39.39,0,0,1-.28-.13L272,91.1a.44.44,0,0,1-.09-.24v-20a.38.38,0,0,1,.38-.38.37.37,0,0,1,.37.38V90.72l31.18,37a.37.37,0,0,1-.29.62Z"></path><path d="M415.26,132.91c-18,0-37.06-1.73-37.06-5s19.09-5,37.06-5,37.05,1.74,37.05,5S433.22,132.91,415.26,132.91Zm0-9.17c-22.5,0-36.31,2.46-36.31,4.21s13.81,4.21,36.31,4.21,36.3-2.45,36.3-4.21S437.75,123.74,415.26,123.74Z"></path><path d="M378.57,128.33a.38.38,0,0,1-.24-.09.37.37,0,0,1,0-.53l31.17-37V70.85a.38.38,0,0,1,.75,0v20a.38.38,0,0,1-.09.24l-31.26,37.1A.39.39,0,0,1,378.57,128.33Z"></path><path d="M451.94,128.33a.39.39,0,0,1-.29-.13L420.38,91.1a.43.43,0,0,1-.08-.24v-20a.37.37,0,0,1,.37-.38.38.38,0,0,1,.38.38V90.72l31.17,37a.37.37,0,0,1,0,.53A.38.38,0,0,1,451.94,128.33Z"></path></g></g><g id="freepik--bottles-2--inject-3"><g style="opacity:0.30000000000000004"><path d="M118.08,207.73h-7.89a3.13,3.13,0,0,1-3.13-3.13V179.08a5.48,5.48,0,0,1,1.27-3.51,4.69,4.69,0,0,0,1.06-2.38l2.28-16.39a.36.36,0,0,1,.37-.32h4.25a.36.36,0,0,1,.37.31l2.54,16.83a4.81,4.81,0,0,0,.81,2l.21.29a5.48,5.48,0,0,1,1,3.15V204.6A3.14,3.14,0,0,1,118.08,207.73Zm-5.71-50.5-2.24,16.06h0a5.44,5.44,0,0,1-1.22,2.76,4.74,4.74,0,0,0-1.1,3V204.6a2.38,2.38,0,0,0,2.38,2.38h7.89a2.39,2.39,0,0,0,2.39-2.38V179.08a4.66,4.66,0,0,0-.87-2.72l-.2-.29a5.51,5.51,0,0,1-.94-2.34L116,157.23Zm-2.61,16h0Z"></path><path d="M116.06,157.82h-3.78a1.21,1.21,0,1,1,0-2.41h3.78a1.21,1.21,0,0,1,0,2.41Zm-3.78-1.66a.46.46,0,0,0-.46.45.47.47,0,0,0,.46.46h3.78a.46.46,0,0,0,.45-.46.45.45,0,0,0-.45-.45Z"></path><path d="M168.24,207.73h-7.9a3.13,3.13,0,0,1-3.13-3.13V179.08a5.48,5.48,0,0,1,1.27-3.51,4.69,4.69,0,0,0,1.06-2.38h0l2.28-16.39a.36.36,0,0,1,.37-.32h4.25a.36.36,0,0,1,.37.31l2.54,16.83a4.81,4.81,0,0,0,.81,2l.21.29a5.48,5.48,0,0,1,1,3.15V204.6A3.13,3.13,0,0,1,168.24,207.73Zm-8-34.44a5.44,5.44,0,0,1-1.22,2.76,4.74,4.74,0,0,0-1.1,3V204.6a2.39,2.39,0,0,0,2.38,2.38h7.9a2.39,2.39,0,0,0,2.38-2.38V179.08a4.72,4.72,0,0,0-.86-2.72l-.21-.29a5.51,5.51,0,0,1-.94-2.34l-2.49-16.5h-3.6Z"></path><path d="M166.21,157.82h-3.78a1.21,1.21,0,1,1,0-2.41h3.78a1.21,1.21,0,0,1,0,2.41Zm-3.78-1.66a.46.46,0,0,0-.46.45.47.47,0,0,0,.46.46h3.78a.46.46,0,0,0,.45-.46.45.45,0,0,0-.45-.45Z"></path><path d="M205,207.73h-7.89a3.14,3.14,0,0,1-3.14-3.13V179.08a5.49,5.49,0,0,1,1.28-3.51,4.77,4.77,0,0,0,1.06-2.38l2.28-16.39a.36.36,0,0,1,.37-.32h4.25a.37.37,0,0,1,.37.31l2.54,16.83a4.81,4.81,0,0,0,.81,2l.21.29a5.47,5.47,0,0,1,1,3.15V204.6A3.13,3.13,0,0,1,205,207.73Zm-5.72-50.5L197,173.29h0a5.49,5.49,0,0,1-1.22,2.76,4.75,4.75,0,0,0-1.11,3V204.6a2.39,2.39,0,0,0,2.39,2.38H205a2.38,2.38,0,0,0,2.38-2.38V179.08a4.65,4.65,0,0,0-.86-2.72l-.2-.29a5.38,5.38,0,0,1-.94-2.34l-2.49-16.5Zm-2.6,16h0Z"></path><path d="M202.94,157.82h-3.78a1.21,1.21,0,0,1,0-2.41h3.78a1.21,1.21,0,1,1,0,2.41Zm-3.78-1.66a.45.45,0,0,0-.45.45.46.46,0,0,0,.45.46h3.78a.47.47,0,0,0,.46-.46.46.46,0,0,0-.46-.45Z"></path><path d="M225.36,207.73h-7.9a3.13,3.13,0,0,1-3.13-3.13V179.08a5.44,5.44,0,0,1,1.28-3.51,4.76,4.76,0,0,0,1-2.38h0l2.28-16.39a.38.38,0,0,1,.37-.32h4.26a.38.38,0,0,1,.37.31l2.54,16.83a4.67,4.67,0,0,0,.8,2l.21.29a5.41,5.41,0,0,1,1,3.15V204.6A3.13,3.13,0,0,1,225.36,207.73Zm-8-34.44h0a5.44,5.44,0,0,1-1.22,2.76,4.74,4.74,0,0,0-1.1,3V204.6a2.39,2.39,0,0,0,2.38,2.38h7.9a2.39,2.39,0,0,0,2.38-2.38V179.08a4.72,4.72,0,0,0-.86-2.72l-.21-.29a5.51,5.51,0,0,1-.94-2.34l-2.49-16.5h-3.6Z"></path><path d="M223.33,157.82h-3.78a1.21,1.21,0,0,1,0-2.41h3.78a1.21,1.21,0,0,1,0,2.41Zm-3.78-1.66a.45.45,0,0,0-.45.45.46.46,0,0,0,.45.46h3.78a.46.46,0,0,0,.45-.46.45.45,0,0,0-.45-.45Z"></path><path d="M248.39,207.73h-7.9a3.13,3.13,0,0,1-3.13-3.13V179.08a5.48,5.48,0,0,1,1.27-3.51,4.69,4.69,0,0,0,1.06-2.38h0L242,156.8a.37.37,0,0,1,.37-.32h4.25a.38.38,0,0,1,.38.31l2.53,16.83a4.81,4.81,0,0,0,.81,2l.21.29a5.48,5.48,0,0,1,1,3.15V204.6A3.13,3.13,0,0,1,248.39,207.73Zm-8-34.44h0a5.44,5.44,0,0,1-1.22,2.76,4.74,4.74,0,0,0-1.1,3V204.6a2.39,2.39,0,0,0,2.38,2.38h7.9a2.39,2.39,0,0,0,2.38-2.38V179.08a4.72,4.72,0,0,0-.86-2.72l-.21-.29a5.51,5.51,0,0,1-.94-2.34l-2.49-16.5h-3.6Z"></path><path d="M246.36,157.82h-3.78a1.21,1.21,0,0,1,0-2.41h3.78a1.21,1.21,0,0,1,0,2.41Zm-3.78-1.66a.45.45,0,0,0-.45.45.46.46,0,0,0,.45.46h3.78a.46.46,0,0,0,.45-.46.45.45,0,0,0-.45-.45Z"></path><path d="M318.69,207.73h-7.9a3.13,3.13,0,0,1-3.13-3.13V179.08a5.49,5.49,0,0,1,1.28-3.51,4.67,4.67,0,0,0,1.05-2.38h0l2.28-16.39a.38.38,0,0,1,.38-.32h4.25a.38.38,0,0,1,.37.31l2.54,16.83a4.81,4.81,0,0,0,.81,2l.2.29a5.41,5.41,0,0,1,1,3.15V204.6A3.13,3.13,0,0,1,318.69,207.73Zm-7.95-34.44a5.46,5.46,0,0,1-1.23,2.76,4.74,4.74,0,0,0-1.1,3V204.6a2.39,2.39,0,0,0,2.38,2.38h7.9a2.39,2.39,0,0,0,2.38-2.38V179.08a4.72,4.72,0,0,0-.86-2.72l-.21-.29a5.49,5.49,0,0,1-.93-2.34l-2.49-16.5H313Z"></path><path d="M316.66,157.82h-3.78a1.21,1.21,0,0,1,0-2.41h3.78a1.21,1.21,0,0,1,0,2.41Zm-3.78-1.66a.45.45,0,0,0-.45.45.46.46,0,0,0,.45.46h3.78a.46.46,0,0,0,.45-.46.45.45,0,0,0-.45-.45Z"></path><path d="M343.77,207.73h-7.9a3.13,3.13,0,0,1-3.13-3.13V179.08a5.48,5.48,0,0,1,1.27-3.51,4.69,4.69,0,0,0,1.06-2.38l2.28-16.39a.37.37,0,0,1,.37-.32H342a.38.38,0,0,1,.38.31l2.53,16.83a4.81,4.81,0,0,0,.81,2l.21.29a5.48,5.48,0,0,1,1,3.15V204.6A3.13,3.13,0,0,1,343.77,207.73Zm-5.72-50.5-2.24,16.06h0a5.41,5.41,0,0,1-1.22,2.76,4.74,4.74,0,0,0-1.1,3V204.6a2.39,2.39,0,0,0,2.38,2.38h7.9a2.39,2.39,0,0,0,2.38-2.38V179.08a4.72,4.72,0,0,0-.86-2.72l-.21-.29a5.51,5.51,0,0,1-.94-2.34l-2.49-16.5Zm-2.61,16h0Z"></path><path d="M341.74,157.82H338a1.21,1.21,0,0,1,0-2.41h3.78a1.21,1.21,0,0,1,0,2.41ZM338,156.16a.45.45,0,0,0-.45.45.46.46,0,0,0,.45.46h3.78a.46.46,0,0,0,.45-.46.45.45,0,0,0-.45-.45Z"></path><path d="M393.92,207.73H386a3.13,3.13,0,0,1-3.13-3.13V179.08a5.44,5.44,0,0,1,1.28-3.51,4.67,4.67,0,0,0,1.05-2.38h0l2.28-16.39a.38.38,0,0,1,.37-.32h4.26a.38.38,0,0,1,.37.31L395,173.62a4.67,4.67,0,0,0,.8,2l.21.29a5.41,5.41,0,0,1,1,3.15V204.6A3.13,3.13,0,0,1,393.92,207.73Zm-8-34.44a5.44,5.44,0,0,1-1.22,2.76,4.74,4.74,0,0,0-1.1,3V204.6A2.39,2.39,0,0,0,386,207h7.9a2.39,2.39,0,0,0,2.38-2.38V179.08a4.72,4.72,0,0,0-.86-2.72l-.21-.29a5.51,5.51,0,0,1-.94-2.34l-2.49-16.5h-3.6Z"></path><path d="M391.89,157.82h-3.78a1.21,1.21,0,0,1,0-2.41h3.78a1.21,1.21,0,0,1,0,2.41Zm-3.78-1.66a.45.45,0,0,0-.45.45.46.46,0,0,0,.45.46h3.78a.46.46,0,0,0,.45-.46.45.45,0,0,0-.45-.45Z"></path><path d="M118.08,278.74h-7.89a3.13,3.13,0,0,1-3.13-3.13V250.09a5.51,5.51,0,0,1,1.27-3.52,4.65,4.65,0,0,0,1.06-2.37l2.28-16.4a.37.37,0,0,1,.37-.32h4.25a.37.37,0,0,1,.37.32l2.54,16.83a4.77,4.77,0,0,0,.81,2l.21.3a5.44,5.44,0,0,1,1,3.15v25.52A3.14,3.14,0,0,1,118.08,278.74Zm-5.71-50.51-2.24,16.07h0a5.44,5.44,0,0,1-1.22,2.76,4.7,4.7,0,0,0-1.1,3v25.52a2.38,2.38,0,0,0,2.38,2.38h7.89a2.39,2.39,0,0,0,2.39-2.38V250.09a4.66,4.66,0,0,0-.87-2.72l-.2-.3a5.52,5.52,0,0,1-.94-2.33L116,228.23Zm-2.61,16h0Z"></path><path d="M116.06,228.82h-3.78a1.2,1.2,0,1,1,0-2.4h3.78a1.2,1.2,0,0,1,0,2.4Zm-3.78-1.65a.45.45,0,1,0,0,.9h3.78a.45.45,0,1,0,0-.9Z"></path><path d="M168.24,278.74h-7.9a3.13,3.13,0,0,1-3.13-3.13V250.09a5.51,5.51,0,0,1,1.27-3.52,4.65,4.65,0,0,0,1.06-2.37h0l2.28-16.4a.37.37,0,0,1,.37-.32h4.25a.37.37,0,0,1,.37.32l2.54,16.83a4.77,4.77,0,0,0,.81,2l.21.3a5.44,5.44,0,0,1,1,3.15v25.52A3.14,3.14,0,0,1,168.24,278.74Zm-8-34.44a5.44,5.44,0,0,1-1.22,2.76,4.7,4.7,0,0,0-1.1,3v25.52a2.39,2.39,0,0,0,2.38,2.38h7.9a2.39,2.39,0,0,0,2.38-2.38V250.09a4.72,4.72,0,0,0-.86-2.72l-.21-.3a5.52,5.52,0,0,1-.94-2.33l-2.49-16.51h-3.6Z"></path><path d="M166.21,228.82h-3.78a1.2,1.2,0,1,1,0-2.4h3.78a1.2,1.2,0,0,1,0,2.4Zm-3.78-1.65a.45.45,0,1,0,0,.9h3.78a.45.45,0,0,0,0-.9Z"></path><path d="M193.31,278.74h-7.89a3.14,3.14,0,0,1-3.14-3.13V250.09a5.52,5.52,0,0,1,1.28-3.52,4.64,4.64,0,0,0,1.05-2.37h0l2.28-16.4a.39.39,0,0,1,.38-.32h4.25a.38.38,0,0,1,.37.32l2.54,16.83a4.77,4.77,0,0,0,.81,2l.2.3a5.36,5.36,0,0,1,1,3.15v25.52A3.13,3.13,0,0,1,193.31,278.74Zm-7.95-34.44a5.46,5.46,0,0,1-1.23,2.76,4.7,4.7,0,0,0-1.1,3v25.52a2.39,2.39,0,0,0,2.39,2.38h7.89a2.38,2.38,0,0,0,2.38-2.38V250.09a4.65,4.65,0,0,0-.86-2.72l-.21-.3a5.5,5.5,0,0,1-.93-2.33l-2.49-16.51h-3.61Z"></path><path d="M191.28,228.82H187.5a1.2,1.2,0,1,1,0-2.4h3.78a1.2,1.2,0,1,1,0,2.4Zm-3.78-1.65a.45.45,0,0,0,0,.9h3.78a.45.45,0,1,0,0-.9Z"></path><path d="M218.39,278.74h-7.9a3.13,3.13,0,0,1-3.13-3.13V250.09a5.51,5.51,0,0,1,1.27-3.52,4.65,4.65,0,0,0,1.06-2.37L212,227.8a.38.38,0,0,1,.37-.32h4.26a.38.38,0,0,1,.37.32l2.53,16.83a4.77,4.77,0,0,0,.81,2l.21.3a5.44,5.44,0,0,1,1,3.15v25.52A3.14,3.14,0,0,1,218.39,278.74Zm-5.72-50.51-2.24,16.07h0a5.44,5.44,0,0,1-1.22,2.76,4.7,4.7,0,0,0-1.1,3v25.52a2.39,2.39,0,0,0,2.38,2.38h7.9a2.39,2.39,0,0,0,2.38-2.38V250.09a4.72,4.72,0,0,0-.86-2.72l-.21-.3a5.52,5.52,0,0,1-.94-2.33l-2.49-16.51Zm-2.61,16h0Z"></path><path d="M216.36,228.82h-3.78a1.2,1.2,0,0,1,0-2.4h3.78a1.2,1.2,0,0,1,0,2.4Zm-3.78-1.65a.45.45,0,0,0,0,.9h3.78a.45.45,0,0,0,0-.9Z"></path><path d="M268.54,278.74h-7.9a3.14,3.14,0,0,1-3.13-3.13V250.09a5.46,5.46,0,0,1,1.28-3.52,4.64,4.64,0,0,0,1-2.37l2.28-16.4a.38.38,0,0,1,.37-.32h4.26a.38.38,0,0,1,.37.32l2.54,16.83a4.63,4.63,0,0,0,.8,2l.21.3a5.36,5.36,0,0,1,1,3.15v25.52A3.13,3.13,0,0,1,268.54,278.74Zm-5.72-50.51-2.23,16.07h0a5.54,5.54,0,0,1-1.23,2.76,4.7,4.7,0,0,0-1.1,3v25.52a2.39,2.39,0,0,0,2.38,2.38h7.9a2.39,2.39,0,0,0,2.38-2.38V250.09a4.72,4.72,0,0,0-.86-2.72l-.21-.3a5.52,5.52,0,0,1-.94-2.33l-2.49-16.51Zm-2.61,16h0Z"></path><path d="M266.51,228.82h-3.78a1.2,1.2,0,1,1,0-2.4h3.78a1.2,1.2,0,0,1,0,2.4Zm-3.78-1.65a.45.45,0,0,0,0,.9h3.78a.45.45,0,0,0,0-.9Z"></path><path d="M293.61,278.74h-7.89a3.13,3.13,0,0,1-3.13-3.13V250.09a5.51,5.51,0,0,1,1.27-3.52,4.65,4.65,0,0,0,1.06-2.37h0l2.28-16.4a.37.37,0,0,1,.37-.32h4.25a.37.37,0,0,1,.37.32l2.54,16.83a4.77,4.77,0,0,0,.81,2l.21.3a5.44,5.44,0,0,1,1,3.15v25.52A3.14,3.14,0,0,1,293.61,278.74Zm-7.95-34.44a5.44,5.44,0,0,1-1.22,2.76,4.7,4.7,0,0,0-1.1,3v25.52a2.39,2.39,0,0,0,2.38,2.38h7.89a2.39,2.39,0,0,0,2.39-2.38V250.09a4.66,4.66,0,0,0-.87-2.72l-.2-.3a5.52,5.52,0,0,1-.94-2.33l-2.49-16.51h-3.6Z"></path><path d="M291.59,228.82h-3.78a1.2,1.2,0,1,1,0-2.4h3.78a1.2,1.2,0,1,1,0,2.4Zm-3.78-1.65a.45.45,0,1,0,0,.9h3.78a.45.45,0,0,0,0-.9Z"></path><path d="M318.69,278.74h-7.9a3.14,3.14,0,0,1-3.13-3.13V250.09a5.52,5.52,0,0,1,1.28-3.52A4.68,4.68,0,0,0,310,244.2h0l2.28-16.4a.39.39,0,0,1,.38-.32h4.25a.38.38,0,0,1,.37.32l2.54,16.83a4.77,4.77,0,0,0,.81,2l.2.3a5.36,5.36,0,0,1,1,3.15v25.52A3.13,3.13,0,0,1,318.69,278.74Zm-7.95-34.44h0a5.5,5.5,0,0,1-1.23,2.76,4.7,4.7,0,0,0-1.1,3v25.52a2.39,2.39,0,0,0,2.38,2.38h7.9a2.39,2.39,0,0,0,2.38-2.38V250.09a4.72,4.72,0,0,0-.86-2.72l-.21-.3a5.5,5.5,0,0,1-.93-2.33l-2.49-16.51H313Z"></path><path d="M316.66,228.82h-3.78a1.2,1.2,0,0,1,0-2.4h3.78a1.2,1.2,0,0,1,0,2.4Zm-3.78-1.65a.45.45,0,1,0,0,.9h3.78a.45.45,0,1,0,0-.9Z"></path><path d="M343.77,278.74h-7.9a3.13,3.13,0,0,1-3.13-3.13V250.09a5.51,5.51,0,0,1,1.27-3.52,4.65,4.65,0,0,0,1.06-2.37l2.28-16.4a.38.38,0,0,1,.37-.32H342a.39.39,0,0,1,.38.32l2.53,16.83a4.77,4.77,0,0,0,.81,2l.21.3a5.44,5.44,0,0,1,1,3.15v25.52A3.14,3.14,0,0,1,343.77,278.74Zm-5.72-50.51-2.24,16.07h0a5.44,5.44,0,0,1-1.22,2.76,4.7,4.7,0,0,0-1.1,3v25.52a2.39,2.39,0,0,0,2.38,2.38h7.9a2.39,2.39,0,0,0,2.38-2.38V250.09a4.72,4.72,0,0,0-.86-2.72l-.21-.3a5.52,5.52,0,0,1-.94-2.33l-2.49-16.51Zm-2.61,16h0Z"></path><path d="M341.74,228.82H338a1.2,1.2,0,0,1,0-2.4h3.78a1.2,1.2,0,0,1,0,2.4ZM338,227.17a.45.45,0,1,0,0,.9h3.78a.45.45,0,1,0,0-.9Z"></path><path d="M393.92,278.74H386a3.14,3.14,0,0,1-3.13-3.13V250.09a5.46,5.46,0,0,1,1.28-3.52,4.68,4.68,0,0,0,1.05-2.37h0l2.28-16.4a.38.38,0,0,1,.37-.32h4.26a.38.38,0,0,1,.37.32L395,244.63a4.63,4.63,0,0,0,.8,2l.21.3a5.36,5.36,0,0,1,1,3.15v25.52A3.14,3.14,0,0,1,393.92,278.74Zm-8-34.44h0a5.48,5.48,0,0,1-1.22,2.76,4.7,4.7,0,0,0-1.1,3v25.52A2.39,2.39,0,0,0,386,278h7.9a2.39,2.39,0,0,0,2.38-2.38V250.09a4.72,4.72,0,0,0-.86-2.72l-.21-.3a5.52,5.52,0,0,1-.94-2.33l-2.49-16.51h-3.6Z"></path><path d="M391.89,228.82h-3.78a1.2,1.2,0,0,1,0-2.4h3.78a1.2,1.2,0,0,1,0,2.4Zm-3.78-1.65a.45.45,0,1,0,0,.9h3.78a.45.45,0,1,0,0-.9Z"></path><path d="M458.6,278.69H40.53a.38.38,0,0,1,0-.75H458.6a.38.38,0,0,1,0,.75Z"></path><path d="M458.6,207.83H40.53a.38.38,0,0,1,0-.75H458.6a.38.38,0,0,1,0,.75Z"></path><path d="M458.6,213.67H40.53a.38.38,0,0,1-.37-.38.37.37,0,0,1,.37-.37H458.6a.36.36,0,0,1,.37.37A.37.37,0,0,1,458.6,213.67Z"></path><path d="M458.6,290.36H40.53a.38.38,0,0,1,0-.75H458.6a.38.38,0,0,1,0,.75Z"></path><path d="M458.6,297.36H40.53a.38.38,0,0,1,0-.75H458.6a.38.38,0,0,1,0,.75Z"></path><path d="M374.46,278.33h-18a.38.38,0,0,1-.38-.38V249.47a3.42,3.42,0,0,1,3.41-3.42h1.89V227.62a.38.38,0,0,1,.37-.37h7.42a.38.38,0,0,1,.38.37v18.43h1.88a3.42,3.42,0,0,1,3.41,3.42V278A.37.37,0,0,1,374.46,278.33Zm-17.64-.75h17.26V249.47a2.67,2.67,0,0,0-2.66-2.67h-2.26a.36.36,0,0,1-.37-.37V228h-6.67v18.43a.37.37,0,0,1-.38.37h-2.26a2.67,2.67,0,0,0-2.66,2.67Z"></path><path d="M369.16,238.31h-7.42a.38.38,0,0,1-.37-.38V227.62a.38.38,0,0,1,.37-.37h7.42a.38.38,0,0,1,.38.37v10.31A.38.38,0,0,1,369.16,238.31Zm-7-.75h6.67V228h-6.67Z"></path><path d="M371.15,270.91H359.76a.38.38,0,0,1-.38-.38V255.17a.37.37,0,0,1,.38-.37h11.39a.37.37,0,0,1,.37.37v15.36A.38.38,0,0,1,371.15,270.91Zm-11-.75h10.64V255.55H360.13Z"></path><path d="M420.4,278.33h-18A.38.38,0,0,1,402,278V249.47a3.42,3.42,0,0,1,3.41-3.42h1.89V227.62a.38.38,0,0,1,.37-.37h7.42a.38.38,0,0,1,.38.37v18.43h1.88a3.42,3.42,0,0,1,3.41,3.42V278A.37.37,0,0,1,420.4,278.33Zm-17.64-.75H420V249.47a2.67,2.67,0,0,0-2.66-2.67H415.1a.36.36,0,0,1-.37-.37V228h-6.67v18.43a.37.37,0,0,1-.38.37h-2.26a2.67,2.67,0,0,0-2.66,2.67Z"></path><path d="M415.1,238.31h-7.42a.38.38,0,0,1-.37-.38V227.62a.38.38,0,0,1,.37-.37h7.42a.38.38,0,0,1,.38.37v10.31A.38.38,0,0,1,415.1,238.31Zm-7-.75h6.67V228h-6.67Z"></path><path d="M417.09,270.91H405.7a.38.38,0,0,1-.38-.38V255.17a.37.37,0,0,1,.38-.37h11.39a.36.36,0,0,1,.37.37v15.36A.37.37,0,0,1,417.09,270.91Zm-11-.75h10.64V255.55H406.07Z"></path><path d="M443.42,278.33h-18A.38.38,0,0,1,425,278V249.47a3.42,3.42,0,0,1,3.41-3.42h1.89V227.62a.38.38,0,0,1,.37-.37h7.42a.37.37,0,0,1,.37.37v18.43h1.89a3.42,3.42,0,0,1,3.41,3.42V278A.38.38,0,0,1,443.42,278.33Zm-17.64-.75H443V249.47a2.67,2.67,0,0,0-2.66-2.67h-2.26a.37.37,0,0,1-.38-.37V228h-6.66v18.43a.37.37,0,0,1-.38.37h-2.26a2.67,2.67,0,0,0-2.66,2.67Z"></path><path d="M438.12,238.31H430.7a.38.38,0,0,1-.37-.38V227.62a.38.38,0,0,1,.37-.37h7.42a.37.37,0,0,1,.37.37v10.31A.37.37,0,0,1,438.12,238.31Zm-7-.75h6.66V228h-6.66Z"></path><path d="M440.11,270.91H428.72a.38.38,0,0,1-.38-.38V255.17a.37.37,0,0,1,.38-.37h11.39a.37.37,0,0,1,.37.37v15.36A.38.38,0,0,1,440.11,270.91Zm-11-.75h10.64V255.55H429.09Z"></path><path d="M247.53,278.33h-18a.38.38,0,0,1-.38-.38V249.47a3.42,3.42,0,0,1,3.41-3.42h1.89V227.62a.38.38,0,0,1,.37-.37h7.42a.38.38,0,0,1,.38.37v18.43h1.88a3.42,3.42,0,0,1,3.41,3.42V278A.38.38,0,0,1,247.53,278.33Zm-17.64-.75h17.26V249.47a2.67,2.67,0,0,0-2.66-2.67h-2.26a.36.36,0,0,1-.37-.37V228h-6.67v18.43a.37.37,0,0,1-.38.37h-2.26a2.67,2.67,0,0,0-2.66,2.67Z"></path><path d="M242.23,238.31h-7.42a.38.38,0,0,1-.37-.38V227.62a.38.38,0,0,1,.37-.37h7.42a.38.38,0,0,1,.38.37v10.31A.38.38,0,0,1,242.23,238.31Zm-7-.75h6.67V228h-6.67Z"></path><path d="M244.22,270.91H232.83a.38.38,0,0,1-.38-.38V255.17a.37.37,0,0,1,.38-.37h11.39a.37.37,0,0,1,.37.37v15.36A.38.38,0,0,1,244.22,270.91Zm-11-.75h10.64V255.55H233.2Z"></path><path d="M147.67,278.33h-18a.38.38,0,0,1-.37-.38V249.47a3.42,3.42,0,0,1,3.41-3.42h1.89V227.62a.37.37,0,0,1,.37-.37h7.42a.38.38,0,0,1,.37.37v18.43h1.89a3.42,3.42,0,0,1,3.41,3.42V278A.38.38,0,0,1,147.67,278.33ZM130,277.58H147.3V249.47a2.67,2.67,0,0,0-2.66-2.67h-2.26a.37.37,0,0,1-.38-.37V228h-6.66v18.43a.37.37,0,0,1-.38.37H132.7a2.67,2.67,0,0,0-2.66,2.67Z"></path><path d="M142.38,238.31H135a.37.37,0,0,1-.37-.38V227.62a.37.37,0,0,1,.37-.37h7.42a.38.38,0,0,1,.37.37v10.31A.38.38,0,0,1,142.38,238.31Zm-7-.75H142V228h-6.66Z"></path><path d="M144.36,270.91H133a.38.38,0,0,1-.37-.38V255.17a.37.37,0,0,1,.37-.37h11.39a.37.37,0,0,1,.38.37v15.36A.38.38,0,0,1,144.36,270.91Zm-11-.75H144V255.55H133.35Z"></path><path d="M99.61,278.33h-18a.38.38,0,0,1-.37-.38V249.47a3.42,3.42,0,0,1,3.41-3.42h1.89V227.62a.38.38,0,0,1,.37-.37h7.42a.37.37,0,0,1,.37.37v18.43h1.89a3.42,3.42,0,0,1,3.41,3.42V278A.38.38,0,0,1,99.61,278.33ZM82,277.58H99.23V249.47a2.67,2.67,0,0,0-2.66-2.67H94.31a.37.37,0,0,1-.38-.37V228H87.27v18.43a.37.37,0,0,1-.38.37H84.63A2.67,2.67,0,0,0,82,249.47Z"></path><path d="M94.31,238.31H86.89a.38.38,0,0,1-.37-.38V227.62a.38.38,0,0,1,.37-.37h7.42a.37.37,0,0,1,.37.37v10.31A.37.37,0,0,1,94.31,238.31Zm-7-.75h6.66V228H87.27Z"></path><path d="M96.3,270.91H84.91a.38.38,0,0,1-.38-.38V255.17a.37.37,0,0,1,.38-.37H96.3a.37.37,0,0,1,.37.37v15.36A.38.38,0,0,1,96.3,270.91Zm-11-.75H95.92V255.55H85.28Z"></path><path d="M424.13,207.74h-18a.38.38,0,0,1-.37-.37V178.88a3.41,3.41,0,0,1,3.41-3.41H411V157a.38.38,0,0,1,.37-.38h7.42a.37.37,0,0,1,.37.38v18.43h1.89a3.41,3.41,0,0,1,3.41,3.41v28.49A.38.38,0,0,1,424.13,207.74ZM406.49,207h17.26V178.88a2.66,2.66,0,0,0-2.66-2.66h-2.26a.38.38,0,0,1-.38-.38V157.41h-6.66v18.43a.38.38,0,0,1-.38.38h-2.26a2.66,2.66,0,0,0-2.66,2.66Z"></path><path d="M418.83,167.72h-7.42a.38.38,0,0,1-.37-.37V157a.38.38,0,0,1,.37-.38h7.42a.37.37,0,0,1,.37.38v10.31A.37.37,0,0,1,418.83,167.72Zm-7-.75h6.66v-9.56h-6.66Z"></path><path d="M420.82,200.32h-11.4a.37.37,0,0,1-.37-.37V184.58a.38.38,0,0,1,.37-.37h11.4a.38.38,0,0,1,.37.37V200A.37.37,0,0,1,420.82,200.32Zm-11-.75h10.64V185H409.8Z"></path><path d="M373,207.74H355a.38.38,0,0,1-.38-.37V178.88a3.41,3.41,0,0,1,3.41-3.41h1.89V157a.38.38,0,0,1,.38-.38h7.41a.38.38,0,0,1,.38.38v18.43h1.88a3.41,3.41,0,0,1,3.41,3.41v28.49A.37.37,0,0,1,373,207.74ZM355.33,207h17.26V178.88a2.66,2.66,0,0,0-2.66-2.66h-2.26a.37.37,0,0,1-.37-.38V157.41h-6.67v18.43a.38.38,0,0,1-.37.38H358a2.67,2.67,0,0,0-2.66,2.66Z"></path><path d="M367.67,167.72h-7.41a.38.38,0,0,1-.38-.37V157a.38.38,0,0,1,.38-.38h7.41a.38.38,0,0,1,.38.38v10.31A.38.38,0,0,1,367.67,167.72Zm-7-.75h6.67v-9.56h-6.67Z"></path><path d="M369.66,200.32H358.27a.37.37,0,0,1-.38-.37V184.58a.38.38,0,0,1,.38-.37h11.39a.37.37,0,0,1,.37.37V200A.36.36,0,0,1,369.66,200.32Zm-11-.75h10.64V185H358.64Z"></path><path d="M301.73,207.74h-18a.38.38,0,0,1-.37-.37V178.88a3.41,3.41,0,0,1,3.41-3.41h1.89V157a.37.37,0,0,1,.37-.38h7.42a.37.37,0,0,1,.37.38v18.43h1.89a3.41,3.41,0,0,1,3.41,3.41v28.49A.38.38,0,0,1,301.73,207.74ZM284.09,207h17.26V178.88a2.66,2.66,0,0,0-2.66-2.66h-2.26a.38.38,0,0,1-.38-.38V157.41h-6.66v18.43a.38.38,0,0,1-.38.38h-2.26a2.66,2.66,0,0,0-2.66,2.66Z"></path><path d="M296.43,167.72H289a.37.37,0,0,1-.37-.37V157a.37.37,0,0,1,.37-.38h7.42a.37.37,0,0,1,.37.38v10.31A.37.37,0,0,1,296.43,167.72Zm-7-.75h6.66v-9.56h-6.66Z"></path><path d="M298.42,200.32H287a.37.37,0,0,1-.38-.37V184.58a.38.38,0,0,1,.38-.37h11.39a.38.38,0,0,1,.37.37V200A.37.37,0,0,1,298.42,200.32Zm-11-.75H298V185H287.4Z"></path><path d="M277.37,207.74h-18a.38.38,0,0,1-.37-.37V178.88a3.41,3.41,0,0,1,3.41-3.41h1.89V157a.37.37,0,0,1,.37-.38h7.42a.37.37,0,0,1,.37.38v18.43h1.89a3.41,3.41,0,0,1,3.41,3.41v28.49A.38.38,0,0,1,277.37,207.74ZM259.73,207H277V178.88a2.66,2.66,0,0,0-2.66-2.66h-2.26a.38.38,0,0,1-.38-.38V157.41H265v18.43a.38.38,0,0,1-.38.38h-2.26a2.66,2.66,0,0,0-2.66,2.66Z"></path><path d="M272.07,167.72h-7.42a.37.37,0,0,1-.37-.37V157a.37.37,0,0,1,.37-.38h7.42a.37.37,0,0,1,.37.38v10.31A.37.37,0,0,1,272.07,167.72Zm-7-.75h6.66v-9.56H265Z"></path><path d="M274.05,200.32H262.66a.37.37,0,0,1-.37-.37V184.58a.38.38,0,0,1,.37-.37h11.39a.38.38,0,0,1,.38.37V200A.37.37,0,0,1,274.05,200.32Zm-11-.75h10.64V185H263Z"></path><path d="M191.91,207.74h-18a.38.38,0,0,1-.38-.37V178.88a3.42,3.42,0,0,1,3.42-3.41h1.88V157a.38.38,0,0,1,.38-.38h7.41a.38.38,0,0,1,.38.38v18.43h1.88a3.42,3.42,0,0,1,3.42,3.41v28.49A.38.38,0,0,1,191.91,207.74ZM174.27,207h17.27V178.88a2.67,2.67,0,0,0-2.67-2.66h-2.26a.38.38,0,0,1-.37-.38V157.41h-6.67v18.43a.38.38,0,0,1-.37.38h-2.26a2.67,2.67,0,0,0-2.67,2.66Z"></path><path d="M186.61,167.72H179.2a.38.38,0,0,1-.38-.37V157a.38.38,0,0,1,.38-.38h7.41a.38.38,0,0,1,.38.38v10.31A.38.38,0,0,1,186.61,167.72Zm-7-.75h6.67v-9.56h-6.67Z"></path><path d="M188.6,200.32H177.21a.37.37,0,0,1-.38-.37V184.58a.38.38,0,0,1,.38-.37H188.6a.37.37,0,0,1,.37.37V200A.36.36,0,0,1,188.6,200.32Zm-11-.75h10.64V185H177.58Z"></path><path d="M152.34,207.74h-18a.38.38,0,0,1-.37-.37V178.88a3.41,3.41,0,0,1,3.41-3.41h1.89V157a.37.37,0,0,1,.37-.38h7.42a.38.38,0,0,1,.37.38v18.43h1.89a3.41,3.41,0,0,1,3.41,3.41v28.49A.38.38,0,0,1,152.34,207.74ZM134.71,207H152V178.88a2.66,2.66,0,0,0-2.66-2.66h-2.26a.38.38,0,0,1-.38-.38V157.41H140v18.43a.38.38,0,0,1-.38.38h-2.26a2.66,2.66,0,0,0-2.66,2.66Z"></path><path d="M147.05,167.72h-7.42a.37.37,0,0,1-.37-.37V157a.37.37,0,0,1,.37-.38h7.42a.38.38,0,0,1,.37.38v10.31A.38.38,0,0,1,147.05,167.72Zm-7-.75h6.66v-9.56H140Z"></path><path d="M149,200.32H137.64a.37.37,0,0,1-.37-.37V184.58a.38.38,0,0,1,.37-.37H149a.38.38,0,0,1,.38.37V200A.37.37,0,0,1,149,200.32Zm-11-.75h10.64V185H138Z"></path><path d="M118.08,359.92h-7.89a3.13,3.13,0,0,1-3.13-3.13V331.27a5.48,5.48,0,0,1,1.27-3.51,4.69,4.69,0,0,0,1.06-2.38L111.67,309a.37.37,0,0,1,.37-.33h4.25a.37.37,0,0,1,.37.32l2.54,16.83a4.72,4.72,0,0,0,.81,2l.21.3a5.44,5.44,0,0,1,1,3.15v25.52A3.14,3.14,0,0,1,118.08,359.92Zm-5.71-50.51-2.24,16.07h0a5.44,5.44,0,0,1-1.22,2.76,4.72,4.72,0,0,0-1.1,3v25.52a2.38,2.38,0,0,0,2.38,2.38h7.89a2.39,2.39,0,0,0,2.39-2.38V331.27a4.66,4.66,0,0,0-.87-2.72l-.2-.3a5.39,5.39,0,0,1-.94-2.33L116,309.41Zm-2.61,16h0Z"></path><path d="M116.06,310h-3.78a1.2,1.2,0,1,1,0-2.4h3.78a1.2,1.2,0,1,1,0,2.4Zm-3.78-1.65a.45.45,0,1,0,0,.9h3.78a.45.45,0,0,0,0-.9Z"></path><path d="M168.24,359.92h-7.9a3.13,3.13,0,0,1-3.13-3.13V331.27a5.48,5.48,0,0,1,1.27-3.51,4.69,4.69,0,0,0,1.06-2.38h0L161.82,309a.37.37,0,0,1,.37-.33h4.25a.37.37,0,0,1,.37.32l2.54,16.83a4.72,4.72,0,0,0,.81,2l.21.3a5.46,5.46,0,0,1,1,3.15v25.52A3.13,3.13,0,0,1,168.24,359.92Zm-8-34.44a5.44,5.44,0,0,1-1.22,2.76,4.72,4.72,0,0,0-1.1,3v25.52a2.39,2.39,0,0,0,2.38,2.38h7.9a2.39,2.39,0,0,0,2.38-2.38V331.27a4.72,4.72,0,0,0-.86-2.72l-.21-.3a5.47,5.47,0,0,1-.94-2.33l-2.49-16.51h-3.6Z"></path><path d="M166.21,310h-3.78a1.2,1.2,0,1,1,0-2.4h3.78a1.2,1.2,0,1,1,0,2.4Zm-3.78-1.65a.45.45,0,1,0,0,.9h3.78a.45.45,0,1,0,0-.9Z"></path><path d="M205,359.92h-7.89a3.14,3.14,0,0,1-3.14-3.13V331.27a5.49,5.49,0,0,1,1.28-3.51,4.77,4.77,0,0,0,1.06-2.38L198.56,309a.37.37,0,0,1,.37-.33h4.25a.38.38,0,0,1,.37.32l2.54,16.83a4.72,4.72,0,0,0,.81,2l.21.3a5.45,5.45,0,0,1,1,3.15v25.52A3.13,3.13,0,0,1,205,359.92Zm-5.72-50.51L197,325.48h0a5.53,5.53,0,0,1-1.22,2.76,4.73,4.73,0,0,0-1.11,3v25.52a2.39,2.39,0,0,0,2.39,2.38H205a2.38,2.38,0,0,0,2.38-2.38V331.27a4.65,4.65,0,0,0-.86-2.72l-.2-.3a5.35,5.35,0,0,1-.94-2.33l-2.49-16.51Zm-2.6,16h0Z"></path><path d="M202.94,310h-3.78a1.2,1.2,0,1,1,0-2.4h3.78a1.2,1.2,0,1,1,0,2.4Zm-3.78-1.65a.45.45,0,1,0,0,.9h3.78a.45.45,0,1,0,0-.9Z"></path><path d="M225.36,359.92h-7.9a3.13,3.13,0,0,1-3.13-3.13V331.27a5.44,5.44,0,0,1,1.28-3.51,4.76,4.76,0,0,0,1-2.38h0L218.94,309a.38.38,0,0,1,.37-.33h4.26a.38.38,0,0,1,.37.32l2.54,16.83a4.58,4.58,0,0,0,.8,2l.21.3a5.36,5.36,0,0,1,1,3.15v25.52A3.13,3.13,0,0,1,225.36,359.92Zm-8-34.44h0a5.44,5.44,0,0,1-1.22,2.76,4.72,4.72,0,0,0-1.1,3v25.52a2.39,2.39,0,0,0,2.38,2.38h7.9a2.39,2.39,0,0,0,2.38-2.38V331.27a4.72,4.72,0,0,0-.86-2.72l-.21-.3a5.52,5.52,0,0,1-.94-2.33l-2.49-16.51h-3.6Z"></path><path d="M223.33,310h-3.78a1.2,1.2,0,0,1,0-2.4h3.78a1.2,1.2,0,1,1,0,2.4Zm-3.78-1.65a.45.45,0,1,0,0,.9h3.78a.45.45,0,1,0,0-.9Z"></path><path d="M248.39,359.92h-7.9a3.13,3.13,0,0,1-3.13-3.13V331.27a5.48,5.48,0,0,1,1.27-3.51,4.69,4.69,0,0,0,1.06-2.38h0L242,309a.38.38,0,0,1,.37-.33h4.25a.39.39,0,0,1,.38.32l2.53,16.83a4.72,4.72,0,0,0,.81,2l.21.3a5.46,5.46,0,0,1,1,3.15v25.52A3.13,3.13,0,0,1,248.39,359.92Zm-8-34.44h0a5.44,5.44,0,0,1-1.22,2.76,4.72,4.72,0,0,0-1.1,3v25.52a2.39,2.39,0,0,0,2.38,2.38h7.9a2.39,2.39,0,0,0,2.38-2.38V331.27a4.72,4.72,0,0,0-.86-2.72l-.21-.3a5.47,5.47,0,0,1-.94-2.33l-2.49-16.51h-3.6Z"></path><path d="M246.36,310h-3.78a1.2,1.2,0,0,1,0-2.4h3.78a1.2,1.2,0,1,1,0,2.4Zm-3.78-1.65a.45.45,0,1,0,0,.9h3.78a.45.45,0,1,0,0-.9Z"></path><path d="M318.69,359.92h-7.9a3.13,3.13,0,0,1-3.13-3.13V331.27a5.49,5.49,0,0,1,1.28-3.51,4.71,4.71,0,0,0,1.05-2.38h0L312.27,309a.39.39,0,0,1,.38-.33h4.25a.38.38,0,0,1,.37.32l2.54,16.83a4.72,4.72,0,0,0,.81,2l.2.3a5.41,5.41,0,0,1,1,3.15v25.52A3.13,3.13,0,0,1,318.69,359.92Zm-7.95-34.44a5.46,5.46,0,0,1-1.23,2.76,4.72,4.72,0,0,0-1.1,3v25.52a2.39,2.39,0,0,0,2.38,2.38h7.9a2.39,2.39,0,0,0,2.38-2.38V331.27a4.72,4.72,0,0,0-.86-2.72l-.21-.3a5.45,5.45,0,0,1-.93-2.33l-2.49-16.51H313Z"></path><path d="M316.66,310h-3.78a1.2,1.2,0,1,1,0-2.4h3.78a1.2,1.2,0,0,1,0,2.4Zm-3.78-1.65a.45.45,0,1,0,0,.9h3.78a.45.45,0,0,0,0-.9Z"></path><path d="M343.77,359.92h-7.9a3.13,3.13,0,0,1-3.13-3.13V331.27a5.48,5.48,0,0,1,1.27-3.51,4.69,4.69,0,0,0,1.06-2.38L337.35,309a.38.38,0,0,1,.37-.33H342a.39.39,0,0,1,.38.32l2.53,16.83a4.72,4.72,0,0,0,.81,2l.21.3a5.46,5.46,0,0,1,1,3.15v25.52A3.13,3.13,0,0,1,343.77,359.92Zm-5.72-50.51-2.24,16.07h0a5.44,5.44,0,0,1-1.22,2.76,4.72,4.72,0,0,0-1.1,3v25.52a2.39,2.39,0,0,0,2.38,2.38h7.9a2.39,2.39,0,0,0,2.38-2.38V331.27a4.72,4.72,0,0,0-.86-2.72l-.21-.3a5.52,5.52,0,0,1-.94-2.33l-2.49-16.51Zm-2.61,16h0Z"></path><path d="M341.74,310H338a1.2,1.2,0,0,1,0-2.4h3.78a1.2,1.2,0,1,1,0,2.4ZM338,308.35a.45.45,0,0,0,0,.9h3.78a.45.45,0,1,0,0-.9Z"></path><path d="M393.92,359.92H386a3.13,3.13,0,0,1-3.13-3.13V331.27a5.44,5.44,0,0,1,1.28-3.51,4.71,4.71,0,0,0,1.05-2.38h0L387.5,309a.38.38,0,0,1,.37-.33h4.26a.38.38,0,0,1,.37.32L395,325.81a4.58,4.58,0,0,0,.8,2l.21.3a5.41,5.41,0,0,1,1,3.15v25.52A3.13,3.13,0,0,1,393.92,359.92Zm-8-34.44a5.44,5.44,0,0,1-1.22,2.76,4.72,4.72,0,0,0-1.1,3v25.52a2.39,2.39,0,0,0,2.38,2.38h7.9a2.39,2.39,0,0,0,2.38-2.38V331.27a4.72,4.72,0,0,0-.86-2.72l-.21-.3a5.47,5.47,0,0,1-.94-2.33l-2.49-16.51h-3.6Z"></path><path d="M391.89,310h-3.78a1.2,1.2,0,1,1,0-2.4h3.78a1.2,1.2,0,1,1,0,2.4Zm-3.78-1.65a.45.45,0,1,0,0,.9h3.78a.45.45,0,1,0,0-.9Z"></path><path d="M458.6,360H40.53a.38.38,0,0,1,0-.75H458.6a.38.38,0,0,1,0,.75Z"></path><path d="M458.6,365.85H40.53a.37.37,0,0,1-.37-.37.38.38,0,0,1,.37-.38H458.6a.37.37,0,0,1,.37.38A.36.36,0,0,1,458.6,365.85Z"></path><path d="M424.13,359.93h-18a.38.38,0,0,1-.37-.38V331.07a3.41,3.41,0,0,1,3.41-3.41H411V309.22a.38.38,0,0,1,.37-.37h7.42a.37.37,0,0,1,.37.37v18.44h1.89a3.41,3.41,0,0,1,3.41,3.41v28.48A.38.38,0,0,1,424.13,359.93Zm-17.64-.75h17.26V331.07a2.66,2.66,0,0,0-2.66-2.66h-2.26a.38.38,0,0,1-.38-.38V309.6h-6.66V328a.38.38,0,0,1-.38.38h-2.26a2.66,2.66,0,0,0-2.66,2.66Z"></path><path d="M418.83,319.91h-7.42a.38.38,0,0,1-.37-.38V309.22a.38.38,0,0,1,.37-.37h7.42a.37.37,0,0,1,.37.37v10.31A.37.37,0,0,1,418.83,319.91Zm-7-.75h6.66V309.6h-6.66Z"></path><path d="M420.82,352.51h-11.4a.38.38,0,0,1-.37-.37V336.77a.38.38,0,0,1,.37-.37h11.4a.38.38,0,0,1,.37.37v15.37A.38.38,0,0,1,420.82,352.51Zm-11-.75h10.64V337.15H409.8Z"></path><path d="M373,359.93H355a.38.38,0,0,1-.38-.38V331.07a3.41,3.41,0,0,1,3.41-3.41h1.89V309.22a.38.38,0,0,1,.38-.37h7.41a.38.38,0,0,1,.38.37v18.44h1.88a3.41,3.41,0,0,1,3.41,3.41v28.48A.37.37,0,0,1,373,359.93Zm-17.64-.75h17.26V331.07a2.66,2.66,0,0,0-2.66-2.66h-2.26a.37.37,0,0,1-.37-.38V309.6h-6.67V328a.38.38,0,0,1-.37.38H358a2.67,2.67,0,0,0-2.66,2.66Z"></path><path d="M367.67,319.91h-7.41a.38.38,0,0,1-.38-.38V309.22a.38.38,0,0,1,.38-.37h7.41a.38.38,0,0,1,.38.37v10.31A.38.38,0,0,1,367.67,319.91Zm-7-.75h6.67V309.6h-6.67Z"></path><path d="M369.66,352.51H358.27a.38.38,0,0,1-.38-.37V336.77a.38.38,0,0,1,.38-.37h11.39a.37.37,0,0,1,.37.37v15.37A.37.37,0,0,1,369.66,352.51Zm-11-.75h10.64V337.15H358.64Z"></path><path d="M301.73,359.93h-18a.38.38,0,0,1-.37-.38V331.07a3.41,3.41,0,0,1,3.41-3.41h1.89V309.22a.37.37,0,0,1,.37-.37h7.42a.37.37,0,0,1,.37.37v18.44h1.89a3.41,3.41,0,0,1,3.41,3.41v28.48A.38.38,0,0,1,301.73,359.93Zm-17.64-.75h17.26V331.07a2.66,2.66,0,0,0-2.66-2.66h-2.26a.38.38,0,0,1-.38-.38V309.6h-6.66V328a.38.38,0,0,1-.38.38h-2.26a2.66,2.66,0,0,0-2.66,2.66Z"></path><path d="M296.43,319.91H289a.37.37,0,0,1-.37-.38V309.22a.37.37,0,0,1,.37-.37h7.42a.37.37,0,0,1,.37.37v10.31A.37.37,0,0,1,296.43,319.91Zm-7-.75h6.66V309.6h-6.66Z"></path><path d="M298.42,352.51H287a.38.38,0,0,1-.38-.37V336.77a.38.38,0,0,1,.38-.37h11.39a.38.38,0,0,1,.37.37v15.37A.38.38,0,0,1,298.42,352.51Zm-11-.75H298V337.15H287.4Z"></path><path d="M277.37,359.93h-18a.38.38,0,0,1-.37-.38V331.07a3.41,3.41,0,0,1,3.41-3.41h1.89V309.22a.37.37,0,0,1,.37-.37h7.42a.37.37,0,0,1,.37.37v18.44h1.89a3.41,3.41,0,0,1,3.41,3.41v28.48A.38.38,0,0,1,277.37,359.93Zm-17.64-.75H277V331.07a2.66,2.66,0,0,0-2.66-2.66h-2.26a.38.38,0,0,1-.38-.38V309.6H265V328a.38.38,0,0,1-.38.38h-2.26a2.66,2.66,0,0,0-2.66,2.66Z"></path><path d="M272.07,319.91h-7.42a.37.37,0,0,1-.37-.38V309.22a.37.37,0,0,1,.37-.37h7.42a.37.37,0,0,1,.37.37v10.31A.37.37,0,0,1,272.07,319.91Zm-7-.75h6.66V309.6H265Z"></path><path d="M274.05,352.51H262.66a.38.38,0,0,1-.37-.37V336.77a.38.38,0,0,1,.37-.37h11.39a.38.38,0,0,1,.38.37v15.37A.38.38,0,0,1,274.05,352.51Zm-11-.75h10.64V337.15H263Z"></path><path d="M191.91,359.93h-18a.38.38,0,0,1-.38-.38V331.07a3.42,3.42,0,0,1,3.42-3.41h1.88V309.22a.38.38,0,0,1,.38-.37h7.41a.38.38,0,0,1,.38.37v18.44h1.88a3.42,3.42,0,0,1,3.42,3.41v28.48A.38.38,0,0,1,191.91,359.93Zm-17.64-.75h17.27V331.07a2.67,2.67,0,0,0-2.67-2.66h-2.26a.38.38,0,0,1-.37-.38V309.6h-6.67V328a.38.38,0,0,1-.37.38h-2.26a2.67,2.67,0,0,0-2.67,2.66Z"></path><path d="M186.61,319.91H179.2a.38.38,0,0,1-.38-.38V309.22a.38.38,0,0,1,.38-.37h7.41a.38.38,0,0,1,.38.37v10.31A.38.38,0,0,1,186.61,319.91Zm-7-.75h6.67V309.6h-6.67Z"></path><path d="M188.6,352.51H177.21a.38.38,0,0,1-.38-.37V336.77a.38.38,0,0,1,.38-.37H188.6a.37.37,0,0,1,.37.37v15.37A.37.37,0,0,1,188.6,352.51Zm-11-.75h10.64V337.15H177.58Z"></path><path d="M152.34,359.93h-18a.38.38,0,0,1-.37-.38V331.07a3.41,3.41,0,0,1,3.41-3.41h1.89V309.22a.37.37,0,0,1,.37-.37h7.42a.38.38,0,0,1,.37.37v18.44h1.89a3.41,3.41,0,0,1,3.41,3.41v28.48A.38.38,0,0,1,152.34,359.93Zm-17.63-.75H152V331.07a2.66,2.66,0,0,0-2.66-2.66h-2.26a.38.38,0,0,1-.38-.38V309.6H140V328a.38.38,0,0,1-.38.38h-2.26a2.66,2.66,0,0,0-2.66,2.66Z"></path><path d="M147.05,319.91h-7.42a.37.37,0,0,1-.37-.38V309.22a.37.37,0,0,1,.37-.37h7.42a.38.38,0,0,1,.37.37v10.31A.38.38,0,0,1,147.05,319.91Zm-7-.75h6.66V309.6H140Z"></path><path d="M149,352.51H137.64a.38.38,0,0,1-.37-.37V336.77a.38.38,0,0,1,.37-.37H149a.38.38,0,0,1,.38.37v15.37A.38.38,0,0,1,149,352.51Zm-11-.75h10.64V337.15H138Z"></path></g></g><g id="freepik--Character--inject-3"><path d="M256.4,276.53s-19.09-14.57-22.56-17-11.1-4.52-11.1-4.52l-59.69-5.89s-16.31-1.74-25.33,1-21.87,23.94-20.13,25.68,20.13,14.57,24.64,14.92a26.55,26.55,0,0,0,9.37-1.39s42,5.9,43.37,11.1-2.77,12.84-2.77,19.44-2.78,16.65-2.78,16.65l-25.68,90.58H325.11s-3.82-38.18-3.47-39.56a11.82,11.82,0,0,0-1.39-9.72c-2.78-4.17-4.17-6.25-4.17-7.64s1.74-28.1,0-30.88S304.63,326.5,302.55,323s-14.92-20.82-14.92-20.82Z" style="fill:#D3E317"></path><path d="M325.11,427.63H163.74a.49.49,0,0,1-.48-.63l25.68-90.57c0-.1,2.76-10.07,2.76-16.52a37.48,37.48,0,0,1,1.62-9.18c1-3.78,1.91-7.35,1.17-10.13-.94-3.55-26.73-8.45-42.84-10.72a26.56,26.56,0,0,1-9.46,1.38c-4.71-.37-23.27-13.39-25-15.07-.34-.34-.4-.92-.17-1.83,1.34-5.42,12.51-22.22,20.5-24.68,9-2.78,24.86-1.13,25.53-1.06l59.69,5.9c.39.1,7.84,2.15,11.34,4.6s22.38,16.87,22.57,17h0L288,301.82l.08.09c.52.71,12.88,17.41,15,20.86,1.1,1.83,4.51,5.7,7.52,9.12a85.46,85.46,0,0,1,6,7.19c1.36,2.17.81,16.47.19,28.69-.07,1.34-.12,2.23-.12,2.45,0,1.24,1.45,3.41,4.08,7.35a12.27,12.27,0,0,1,1.46,10.13c-.21,1.25,2,24.24,3.48,39.38a.48.48,0,0,1-.49.55Zm-160.71-1H324.55c-.74-7.47-3.74-37.81-3.4-39.18a11.3,11.3,0,0,0-1.32-9.31c-2.92-4.38-4.25-6.38-4.25-7.92,0-.22.05-1.13.12-2.51.88-17.19.87-26.65,0-28.11a89.73,89.73,0,0,0-5.91-7.05c-3.18-3.62-6.48-7.35-7.63-9.26-2-3.32-14.09-19.7-14.86-20.73l-31.17-25.64c-.46-.35-19.14-14.61-22.54-17s-10.87-4.42-11-4.44L163,249.61c-.17,0-16.32-1.69-25.14,1-7,2.17-16.64,16-19.31,22.47-.8,2-.59,2.4-.59,2.4,1.62,1.62,19.92,14.42,24.31,14.76a26.4,26.4,0,0,0,9.16-1.36.5.5,0,0,1,.24,0c4.33.61,42.36,6.1,43.79,11.47.81,3-.16,6.73-1.18,10.64a37,37,0,0,0-1.58,8.93c0,6.58-2.68,16.37-2.8,16.79Z" style="fill:#263238"></path><path d="M294.92,395.71a.52.52,0,0,1-.38-.17.51.51,0,0,1,0-.71c.47-.41,11.68-10.17,21.77-11.57a.52.52,0,0,1,.57.43.5.5,0,0,1-.43.56c-9.8,1.35-21.14,11.24-21.25,11.34A.54.54,0,0,1,294.92,395.71Z" style="fill:#263238"></path><path d="M300.82,395.71a.5.5,0,0,1-.44-.25.51.51,0,0,1,.19-.69c.46-.26,11.43-6.34,17.86-2.42a.51.51,0,0,1-.53.86c-5.92-3.62-16.73,2.37-16.84,2.44A.53.53,0,0,1,300.82,395.71Z" style="fill:#263238"></path><path d="M114.78,259.35s-6.07,14.18-4.55,17.22,20.25,13.17,22.28,13.17,18.74-3.55,24.31-9.12-.51-29.88-.51-29.88Z" style="fill:#D3E317"></path><path d="M132.51,290.24c-2.21,0-21.07-10.12-22.73-13.44-1.58-3.16,3.91-16.17,4.54-17.64a.54.54,0,0,1,.36-.3l41.53-8.61a.51.51,0,0,1,.59.37c.25,1,6.08,24.65.37,30.36S134.57,290.24,132.51,290.24Zm-17.37-30.45c-2.39,5.63-5.49,14.51-4.47,16.56,1.51,3,20.12,12.89,21.84,12.89,1.93,0,18.5-3.51,24-9,4.9-4.89.27-25.56-.52-28.94Z" style="fill:#263238"></path><path d="M168.25,272.52l-.15,0a.49.49,0,0,1-.32-.62c3.36-10.43.73-16.94.71-17a.49.49,0,0,1,.27-.65.5.5,0,0,1,.65.26c.12.28,2.81,6.89-.68,17.7A.5.5,0,0,1,168.25,272.52Z" style="fill:#263238"></path><path d="M151.6,289.87a.49.49,0,0,1-.45-.28.51.51,0,0,1,.22-.67c.1-.05,10-5.08,14.73-13.31a.5.5,0,0,1,.87.5c-4.87,8.5-14.73,13.5-15.15,13.71A.59.59,0,0,1,151.6,289.87Z" style="fill:#263238"></path><path d="M163.05,273.21a.39.39,0,0,1-.15,0,.5.5,0,0,1-.33-.62,34.79,34.79,0,0,0,1-4.36.49.49,0,0,1,.57-.41.48.48,0,0,1,.41.57,34.65,34.65,0,0,1-1.06,4.49A.51.51,0,0,1,163.05,273.21Z" style="fill:#263238"></path><path d="M164.5,264.66h0a.52.52,0,0,1-.49-.51c.17-6.82-2.38-10.55-2.4-10.58a.5.5,0,0,1,.12-.7.51.51,0,0,1,.7.12c.11.16,2.76,4,2.58,11.18A.5.5,0,0,1,164.5,264.66Z" style="fill:#263238"></path><path d="M195,300.47s-5.89-11.79-13.18-16.31" style="fill:#fff"></path><path d="M195,301a.5.5,0,0,1-.45-.27c-.06-.12-5.92-11.73-13-16.11a.51.51,0,0,1-.16-.69.5.5,0,0,1,.69-.16c7.33,4.53,13.13,16,13.37,16.51a.49.49,0,0,1-.22.67A.44.44,0,0,1,195,301Z" style="fill:#263238"></path><path d="M289.36,408.05s3.47-6.59,2.78-11.11-5.9-5.55-2.43-11.1a60.87,60.87,0,0,0,5.55-12.15s-1.39-16,1.39-29.14a64.68,64.68,0,0,1,7.62-19.16,22.11,22.11,0,0,1-1.72-2.36c-2.08-3.47-14.92-20.82-14.92-20.82L256.4,276.53s-14.21-10.85-20.34-15.39c-2.18,7.38-6.8,20.22-15.06,31.7-9.58,13.31-23,22.94-28.79,26.7,0,.12,0,.25,0,.37,0,6.59-2.78,16.65-2.78,16.65l-25.68,90.58H294.08Z" style="fill:#263238"></path><path d="M294.08,427.63H163.74a.49.49,0,0,1-.48-.63l25.68-90.57c0-.1,2.76-10.07,2.76-16.52a1.93,1.93,0,0,1,0-.24v-.14a.53.53,0,0,1,.23-.41c5.41-3.54,19.05-13.23,28.65-26.57,8.37-11.62,13-24.75,15-31.55a.52.52,0,0,1,.32-.33.5.5,0,0,1,.46.07c6.06,4.49,20.2,15.28,20.34,15.39L288,301.82l.08.09c.52.71,12.88,17.41,15,20.86a22.46,22.46,0,0,0,1.68,2.31.5.5,0,0,1,0,.57,63.84,63.84,0,0,0-7.56,19c-2.73,13-1.39,28.84-1.38,29a.4.4,0,0,1,0,.19,61.63,61.63,0,0,1-5.61,12.26c-2,3.21-.92,4.69.45,6.56a9.24,9.24,0,0,1,2.05,4.21c.66,4.26-2.18,10.14-2.74,11.24l4.67,18.9a.48.48,0,0,1-.09.43A.49.49,0,0,1,294.08,427.63Zm-129.68-1h129l-4.56-18.46a.47.47,0,0,1,0-.35c0-.07,3.39-6.51,2.73-10.8a8.49,8.49,0,0,0-1.87-3.77c-1.41-1.92-2.86-3.89-.49-7.67a61.54,61.54,0,0,0,5.47-11.94c-.12-1.4-1.24-16.64,1.4-29.2a64.32,64.32,0,0,1,7.51-19,23.72,23.72,0,0,1-1.55-2.15c-2-3.32-14.09-19.7-14.86-20.73l-31.18-25.64c-.13-.1-13.42-10.25-19.74-14.95-2.13,7-6.76,19.81-14.93,31.16-9.58,13.31-23.11,23-28.71,26.69v.09c0,6.58-2.68,16.37-2.8,16.79Z" style="fill:#263238"></path><path d="M174.92,204.9s-29.26,14.63-43.65,29.26S109.09,265.07,111,270s7.31,9,17,6.84,26.66-12.74,26.66-12.74,29.25-43.41,31.38-45.77S185.06,202.07,174.92,204.9Z" style="fill:#fff"></path><path d="M122.86,278c-8.62,0-11.58-5.74-12.35-7.76-2-5.33,6.27-22,20.4-36.39,14.29-14.52,43.49-29.21,43.79-29.36l.08,0c5.68-1.59,8.84,1.91,10.22,4.13,2.16,3.49,2.84,8.51,1.38,10.13C184.3,221,155.34,264,155,264.4a.54.54,0,0,1-.15.15c-.69.43-17.17,10.68-26.82,12.8A23.94,23.94,0,0,1,122.86,278Zm52.24-72.59c-1.28.65-29.56,15-43.47,29.14-14.81,15-21.84,31-20.18,35.33.83,2.2,4.49,9.15,16.41,6.54,9.12-2,25.07-11.79,26.41-12.63,1.86-2.75,29.27-43.41,31.37-45.73.94-1.06.65-5.48-1.49-9C182.65,206.66,179.87,204.06,175.1,205.37Z" style="fill:#263238"></path><path d="M221.16,199.24s9.91,2.59,10.38,4.95,1,5-.23,6.61-7.08,6.13-7.55,6.84a2.18,2.18,0,0,1-3.07.24C219.75,216.93,221.16,199.24,221.16,199.24Z" style="fill:#fff"></path><path d="M222,218.91a2.35,2.35,0,0,1-1.7-.68c-1-1-.21-12.34.32-19a.54.54,0,0,1,.21-.37.57.57,0,0,1,.42-.08c1.71.45,10.24,2.81,10.74,5.35.46,2.27,1,5.11-.31,7a40.38,40.38,0,0,1-5.05,4.64c-1.09.92-2.33,2-2.5,2.19a2.53,2.53,0,0,1-1.84,1Zm-.43-19c-.54,7-1,16.74-.53,17.69a1.52,1.52,0,0,0,1.15.33,1.61,1.61,0,0,0,1.11-.54A23,23,0,0,1,226,215a41.62,41.62,0,0,0,4.87-4.45c1.09-1.53.57-4.13.15-6.22C230.78,202.94,225.56,201,221.61,199.88Z" style="fill:#263238"></path><path d="M221.16,209.18a.5.5,0,0,1-.33-.13.5.5,0,0,1,0-.7l3.54-4a.5.5,0,0,1,.75.67l-3.54,4A.52.52,0,0,1,221.16,209.18Z" style="fill:#263238"></path><path d="M213.46,239.19a48.23,48.23,0,0,1-1.89,4.71c-.47.71-2.83,1.18-3.54,1.18s-8-.7-10.14-.94-3.07-2.83-.95-4a24.09,24.09,0,0,1,5.43-1.89Z" style="fill:#fff"></path><path d="M208,245.58c-.76,0-8.18-.72-10.2-.94a2.83,2.83,0,0,1-2.53-2.21,2.51,2.51,0,0,1,1.4-2.74,24.35,24.35,0,0,1,5.57-1.94h.14l11.09.95a.46.46,0,0,1,.38.23.5.5,0,0,1,.05.43,45.89,45.89,0,0,1-1.94,4.83C211.34,245.15,208.65,245.58,208,245.58Zm-5.63-6.83a23,23,0,0,0-5.21,1.82,1.51,1.51,0,0,0-.91,1.66,1.82,1.82,0,0,0,1.66,1.41c2.15.24,9.43.94,10.09.94s2.82-.5,3.13-1a36.36,36.36,0,0,0,1.61-4Z" style="fill:#263238"></path><path d="M220.65,239.89l-78.88-7.41a2.09,2.09,0,0,1-1.89-2.08V206a2.1,2.1,0,0,1,1.89-2.09l78.88-7.4Z" style="fill:#cfcfcf"></path><path d="M220.65,240.39h-.05L141.73,233a2.58,2.58,0,0,1-2.35-2.58V206a2.57,2.57,0,0,1,2.35-2.58L220.6,196a.45.45,0,0,1,.38.13.47.47,0,0,1,.17.37v43.35a.48.48,0,0,1-.17.37A.46.46,0,0,1,220.65,240.39Zm-.5-43.31-78.33,7.36a1.59,1.59,0,0,0-1.44,1.59V230.4a1.57,1.57,0,0,0,1.44,1.58l78.33,7.36Z" style="fill:#263238"></path><rect x="147.51" y="212.91" width="70.76" height="4.57" style="fill:#fff"></rect><path d="M147.62,233.66a.5.5,0,0,1-.5-.5V203.55a.5.5,0,0,1,.5-.5.5.5,0,0,1,.5.5v29.61A.5.5,0,0,1,147.62,233.66Z" style="fill:#263238"></path><polygon points="148.06 228.28 218.63 234.17 218.63 230.13 147.95 225.08 148.06 228.28" style="fill:#263238"></polygon><path d="M218.63,234.67h0L148,228.78a.51.51,0,0,1-.46-.48l-.11-3.2a.51.51,0,0,1,.16-.38.48.48,0,0,1,.38-.13l70.67,5a.51.51,0,0,1,.47.5v4a.52.52,0,0,1-.16.37A.55.55,0,0,1,218.63,234.67Zm-70.09-6.85,69.59,5.81v-3l-69.66-5Z" style="fill:#263238"></path><path d="M203,191.69s-5.9-5-10.15-3.07-15.81,14.87-13.92,16,5.9,0,8.26-1.66,6.6-4,6.6-4S200.64,193.1,203,191.69Z" style="fill:#fff"></path><path d="M180.94,205.64a4.31,4.31,0,0,1-2.28-.55,1,1,0,0,1-.43-1c.2-2.94,10.31-14.11,14.42-15.94,4.48-2,10.42,2.94,10.67,3.15a.48.48,0,0,1,.17.42.5.5,0,0,1-.24.39c-2.29,1.38-9.06,7.2-9.13,7.26l-.08.06s-4.25,2.37-6.57,4A12.67,12.67,0,0,1,180.94,205.64ZM195,188.69a4.81,4.81,0,0,0-1.94.39c-4.17,1.85-14.39,13.67-13.82,15.2,1.59,1,5.37-.07,7.67-1.68s6.12-3.74,6.61-4c.56-.49,6-5.13,8.62-6.94C200.91,190.75,197.82,188.69,195,188.69Z" style="fill:#263238"></path><path d="M190,190.74s-7.32-3.3-9.2-1.88-8.26,12.74-7.08,14.39,6.13-1.89,6.13-1.89S187.19,192.87,190,190.74Z" style="fill:#fff"></path><path d="M174.75,204.18a1.63,1.63,0,0,1-1.42-.64c-1.47-2.06,5.25-13.63,7.19-15.08s8.44,1.26,9.7,1.83a.48.48,0,0,1,.3.4.51.51,0,0,1-.2.46c-2.76,2.06-10,10.45-10.07,10.54a.24.24,0,0,1-.09.08C179.48,202.26,176.66,204.18,174.75,204.18ZM182.24,189a1.84,1.84,0,0,0-1.12.26c-2.25,1.68-7.78,12.56-7,13.7.57.8,3.48-.62,5.38-2a134.86,134.86,0,0,1,9.54-10.11A22,22,0,0,0,182.24,189Z" style="fill:#263238"></path><path d="M215,196.64s-6.14-7.07-9.67-6.37-11.8,7.08-12.51,11.56,3.78,3.78,5.9,2.36a78.62,78.62,0,0,1,8.26-4Z" style="fill:#fff"></path><path d="M195.35,205.77a3.42,3.42,0,0,1-1.86-.48c-.7-.45-1.47-1.42-1.13-3.53.76-4.83,9.32-11.26,12.9-12,3.77-.75,9.89,6.24,10.15,6.54a.52.52,0,0,1,.11.43.49.49,0,0,1-.29.35l-8,3.54a78.79,78.79,0,0,0-8.18,4A7,7,0,0,1,195.35,205.77Zm10.53-15.05a3,3,0,0,0-.43,0c-3.18.64-11.43,6.85-12.11,11.15-.2,1.27,0,2.12.69,2.54,1.05.67,3.14.19,4.44-.67a77.13,77.13,0,0,1,8.34-4.06l7.39-3.26C212.34,194.45,208.39,190.72,205.88,190.72Z" style="fill:#263238"></path><path d="M244.88,311.45s-1.49,5.73-3.61,13a46,46,0,0,0-1.92,13.18l1.28,21.89,18.49-14.88s15.09-12.11,20.61-21.47,7-13,7-13l-33.37-17.43Z" style="fill:#D3E317"></path><path d="M240.63,360a.54.54,0,0,1-.21-.05.48.48,0,0,1-.29-.42l-1.28-21.89a45.91,45.91,0,0,1,1.94-13.35c2.09-7.14,3.59-12.89,3.6-12.95l0-.08,8.5-18.7a.5.5,0,0,1,.3-.27.48.48,0,0,1,.39,0L287,309.73a.49.49,0,0,1,.23.63c-.06.15-1.56,3.75-7,13s-20.12,21.1-20.74,21.6l-18.49,14.88A.51.51,0,0,1,240.63,360Zm4.72-48.37c-.14.54-1.6,6.11-3.61,12.94a46.21,46.21,0,0,0-1.89,13l1.22,20.91,17.73-14.27c.16-.12,15.09-12.16,20.5-21.33,4.42-7.47,6.26-11.29,6.8-12.48l-32.48-17Z" style="fill:#263238"></path><polygon points="251.04 307.19 252.96 324.83 239.35 337.59 240.63 359.48 259.12 344.6 258.48 326.11 270.81 322.07 269.75 303.16 251.04 307.19" style="fill:#fff"></polygon><path d="M240.63,360a.54.54,0,0,1-.21-.05.48.48,0,0,1-.29-.42l-1.28-21.89a.5.5,0,0,1,.16-.4l13.42-12.58-1.88-17.39a.49.49,0,0,1,.39-.54l18.7-4a.51.51,0,0,1,.41.09.48.48,0,0,1,.19.37L271.31,322a.51.51,0,0,1-.35.51l-12,3.92.63,18.11a.53.53,0,0,1-.19.41l-18.49,14.88A.51.51,0,0,1,240.63,360Zm-.76-22.19,1.2,20.69,17.54-14.11L258,326.13a.51.51,0,0,1,.34-.5l12-3.91-1-18-17.69,3.82,1.86,17.19a.5.5,0,0,1-.15.42Z" style="fill:#263238"></path><path d="M267,272.34s-4.25-3.19-6.59-2.13a22.9,22.9,0,0,0-5.1,3.83l-10.41,37.41,20.83-3.62,3.82,21.47s15.94-13.18,18.28-17,3.83-7.87,3.4-12.54S267,272.34,267,272.34Z" style="fill:#D3E317"></path><path d="M269.53,329.8a.51.51,0,0,1-.17,0,.5.5,0,0,1-.32-.38l-3.74-21L245,311.94a.5.5,0,0,1-.56-.63l10.41-37.4a.45.45,0,0,1,.13-.22,22.36,22.36,0,0,1,5.25-3.93c2.58-1.18,6.91,2,7.09,2.18l.05,0c2.45,2.34,23.95,23,24.38,27.73.39,4.26-.72,8.34-3.47,12.85-2.36,3.85-17.74,16.58-18.39,17.12A.47.47,0,0,1,269.53,329.8Zm-3.82-22.47a.49.49,0,0,1,.49.41l3.67,20.62c3-2.53,15.51-13.05,17.51-16.33,2.64-4.31,3.7-8.2,3.33-12.23-.33-3.68-17.45-20.77-24-27.08-1.14-.84-4.38-2.81-6.06-2.05a21.33,21.33,0,0,0-4.86,3.63l-10.17,36.52,20.05-3.48Z" style="fill:#263238"></path><path d="M275,260.43,264,276.38s-3.83,34-3.83,37.4,1.7,3.83,1.7,3.83,17.85-7.23,21-9.57,8.29-5.31,8.29-5.31S276.12,287,276.12,277.65A132.2,132.2,0,0,0,275,260.43Z" style="fill:#fff"></path><path d="M261.88,318.11l-.12,0c-.08,0-2.08-.56-2.08-4.31,0-3.39,3.67-36.07,3.83-37.46a.63.63,0,0,1,.08-.23l11-15.94a.5.5,0,0,1,.53-.2.49.49,0,0,1,.38.41,133.75,133.75,0,0,1,1.17,17.29c0,9.05,14.8,24.58,14.95,24.74a.49.49,0,0,1,.14.41.47.47,0,0,1-.25.36s-5.11,3-8.24,5.29-20.42,9.33-21.15,9.62A.41.41,0,0,1,261.88,318.11Zm2.61-41.55c-.25,2.26-3.81,34-3.81,37.22,0,2.39.87,3.1,1.2,3.29,1.93-.79,17.82-7.28,20.75-9.43,2.56-1.88,6.38-4.19,7.79-5-2.53-2.71-14.8-16.31-14.8-25a135.57,135.57,0,0,0-1-15.86Z" style="fill:#263238"></path><path d="M281.24,242.67s7.92-9.56,10.65-14.75,7.38-5.19,14.76-6,21.85.55,24.86,3.82S340,236.66,340,236.66s3,.55,5.74,7.11a39.21,39.21,0,0,1,2.73,13.38l-4.1-3.55s3.83,10.93,1.09,15-10.65,2.18-10.65,2.18-1.09-16.93-3.28-17.48-10.38-.27-13.66-4.37-5.74-10.11-6.56-10.11-15.57,3-16.94,4.37-4.37,5.74-6,6.83-6.83,1.64-6.83,1.64Z" style="fill:#263238"></path><path d="M338.85,271.77a19.34,19.34,0,0,1-4.18-.47.49.49,0,0,1-.38-.45c-.51-7.93-1.8-16.67-2.9-17-.46-.11-1.28-.19-2.22-.29-3.38-.34-9.05-.92-11.71-4.25a51.09,51.09,0,0,1-4.4-6.94,18.81,18.81,0,0,0-1.85-3c-1.76.14-15.42,3.14-16.5,4.22-.5.5-1.25,1.44-2,2.45a26.07,26.07,0,0,1-4.05,4.45c-1.72,1.14-6.84,1.69-7.05,1.72a.55.55,0,0,1-.39-.12.58.58,0,0,1-.17-.36l-.27-9a.6.6,0,0,1,.11-.34c.08-.09,7.93-9.58,10.6-14.66s6.83-5.4,13.22-6.07l1.92-.21c6.9-.77,22,.36,25.29,4,2.8,3,7.62,9.74,8.4,10.83.78.26,3.48,1.53,5.9,7.34A39.32,39.32,0,0,1,349,257.15a.51.51,0,0,1-.29.46.51.51,0,0,1-.54-.08l-2.76-2.39c1,3.3,2.69,10.47.5,13.77C344.32,271.21,341.35,271.77,338.85,271.77Zm-3.59-1.37c1.54.3,7.58,1.24,9.77-2,2.56-3.84-1.11-14.47-1.15-14.58a.49.49,0,0,1,.19-.58.51.51,0,0,1,.61,0l3.23,2.8A39,39,0,0,0,345.26,244c-2.57-6.15-5.35-6.8-5.38-6.81a.48.48,0,0,1-.31-.2c-.05-.07-5.48-7.66-8.43-10.88s-17.23-4.47-24.44-3.66l-1.93.2c-6.28.66-10.07,1.06-12.43,5.54-2.58,4.89-9.55,13.43-10.6,14.7l.26,8.28c1.69-.21,4.94-.75,6.07-1.5a25.94,25.94,0,0,0,3.81-4.23c.85-1.07,1.59-2,2.12-2.53,1.55-1.56,16.47-4.52,17.29-4.52.66,0,1.16.84,2.64,3.49a51.18,51.18,0,0,0,4.31,6.81c2.4,3,7.8,3.55,11,3.88a19.74,19.74,0,0,1,2.36.31C333.87,253.4,334.9,265,335.26,270.4Zm-24.09-31.08Z" style="fill:#263238"></path><path d="M284,249.23s.55-10.38-3.55-9.29-7.65,9-7.65,13.12a14.73,14.73,0,0,0,2.19,7.37s-4.65,9.56-4.92,12.3-3,19.12,1.36,24.31,9.84,8.75,12,8.75,19.67-3.28,23.22-5.2,12.84-8.74,12.84-8.74l15.3-21s3.28-14.48,1.09-17.75-6.83-3-9-3.83-4.65-.27-6.83-3.55-4.38-10.93-8.75-10.93-21,2.73-21.31,4.65a27,27,0,0,1-2.18,7.1C287,247.86,284,249.23,284,249.23Z" style="fill:#fff"></path><path d="M283.42,306.29c-2.36,0-7.9-3.59-12.4-8.92-4-4.79-2.3-18.26-1.65-23.33.08-.6.14-1.06.17-1.36.26-2.57,4.09-10.65,4.85-12.22a15,15,0,0,1-2.12-7.4c0-4.42,3.67-12.44,8-13.6a2.31,2.31,0,0,1,2.15.42c2,1.58,2.09,6.48,2.06,8.53a8.36,8.36,0,0,0,2.87-2.17,26.7,26.7,0,0,0,2.12-6.92c.38-2.64,18.82-5.07,21.8-5.07,3.52,0,5.68,4.38,7.41,7.9a31,31,0,0,0,1.75,3.25,6.22,6.22,0,0,0,4.71,2.88,11.79,11.79,0,0,1,1.88.48,14.16,14.16,0,0,0,2.2.51c2.39.43,5.36,1,7.06,3.51,2.24,3.36-.68,16.64-1,18.14a.66.66,0,0,1-.09.19l-15.3,21a.36.36,0,0,1-.11.1c-.38.28-9.35,6.88-12.9,8.78S285.82,306.29,283.42,306.29ZM281,240.36a1.86,1.86,0,0,0-.45.06c-3.75,1-7.28,8.61-7.28,12.64a14.38,14.38,0,0,0,2.1,7.1.5.5,0,0,1,0,.49c-.05.1-4.61,9.51-4.87,12.13,0,.3-.1.78-.17,1.39-.58,4.47-2.33,18.1,1.42,22.55,4.47,5.31,9.79,8.57,11.63,8.57,2.12,0,19.51-3.26,23-5.14,3.33-1.79,11.9-8.06,12.72-8.66l15.19-20.89c.91-4.05,2.83-14.75,1.14-17.27-1.46-2.19-4.2-2.68-6.4-3.08a15.15,15.15,0,0,1-2.37-.55,10.43,10.43,0,0,0-1.73-.44,7.17,7.17,0,0,1-5.34-3.3,32.61,32.61,0,0,1-1.82-3.37c-1.69-3.44-3.61-7.34-6.51-7.34-4.8,0-20.1,2.73-20.82,4.24a27.08,27.08,0,0,1-2.24,7.27c-.88,1.45-3.73,2.78-4.05,2.93a.5.5,0,0,1-.49-.05.5.5,0,0,1-.22-.44c.1-1.92,0-7.2-1.66-8.54A1.23,1.23,0,0,0,281,240.36Z" style="fill:#263238"></path><path d="M297.33,261.89c-1.1,1.44-2.52,2.2-3.18,1.7s-.31-2.08.78-3.52,2.52-2.2,3.18-1.7S298.42,260.44,297.33,261.89Z" style="fill:#263238"></path><ellipse cx="313.1" cy="274.82" rx="3.28" ry="1.5" transform="translate(-95.06 358.27) rotate(-52.83)" style="fill:#263238"></ellipse><path d="M304.19,260.89a1,1,0,0,1-.9-.56,11.08,11.08,0,0,0-10.23-6.55,1,1,0,0,1-1.07-.93,1,1,0,0,1,.92-1.06,13,13,0,0,1,12.17,7.65,1,1,0,0,1-.44,1.34A1.06,1.06,0,0,1,304.19,260.89Z" style="fill:#263238"></path><path d="M321.4,276.73a1,1,0,0,1-1-.78c-1.72-7.6-6.63-7.69-6.68-7.69a1,1,0,0,1,0-2c.27,0,6.56.11,8.63,9.25a1,1,0,0,1-.76,1.2Z" style="fill:#263238"></path><path d="M294.64,288.39a6,6,0,0,1-2.41-.45c-3.31-1.51-2.24-9-2.2-9.28a.5.5,0,1,1,1,.15c-.28,1.95-.55,7.22,1.63,8.22,2.76,1.25,7.72-1.07,7.77-1.09a.5.5,0,1,1,.43.9A17,17,0,0,1,294.64,288.39Z" style="fill:#263238"></path><path d="M294.35,292.9h-.05c-3.93-.44-7.29-3.49-9.52-5.52-.65-.59-1.22-1.1-1.65-1.41-2.11-1.51-1.85-5.72-1.84-5.9a.51.51,0,0,1,.53-.47.5.5,0,0,1,.46.54c-.07,1.06.06,4,1.44,5,.47.34,1,.87,1.73,1.48,2.13,1.94,5.36,4.86,9,5.26a.5.5,0,0,1-.06,1Z" style="fill:#263238"></path><path d="M300.64,291c-1.1-2.18-4.37-2.73-4.37-2.73a3.75,3.75,0,0,1-3.83-.82c-2.93-2.54-2.46-5.19-2.46-5.19a79.25,79.25,0,0,0-7.37-7.65c-2.74-2.19-6.29,1.09-7.93,5.46s-6.55,12-4.92,14.48,6.29,9.29,13.67,11.21c0,0,11.2-2.19,13.66-4.65S301.73,293.22,300.64,291Zm-3,3.55c-.64,2.3-1.66,4.6-4.73,5.75s-6.13,2.17-7.66.64,2.68-5,2.68-5l-6.51-5.11s-3.45,3.83-5.75,2.3-1.79-1.92-.25-6.52,4.72-10.09,5.74-10.34,7.54,6.9,7.54,6.9l4,5.49s2.68,1.15,3.7,1.66S298.3,292.28,297.66,294.58Z" style="fill:#263238"></path><path d="M283.42,306.29l-.12,0c-7.67-2-12.4-9.08-13.95-11.41-1.32-2,.79-6.3,2.83-10.48.8-1.64,1.56-3.19,2-4.45,1.23-3.27,3.4-5.76,5.53-6.35a3.47,3.47,0,0,1,3.18.67,78,78,0,0,1,7.44,7.71.5.5,0,0,1,.11.42c0,.09-.36,2.42,2.3,4.72a3.22,3.22,0,0,0,3.29.74.48.48,0,0,1,.29,0c.14,0,3.54.61,4.73,3s-1,8.07-3.64,10.68-13.46,4.7-13.92,4.79Zm-2.7-31.85a3,3,0,0,0-.72.1c-1.8.5-3.75,2.81-4.85,5.74-.49,1.31-1.26,2.88-2.07,4.54-1.73,3.56-3.9,8-2.9,9.49,1.49,2.24,6,9,13.26,11,1.17-.23,11.09-2.29,13.29-4.48,2.46-2.46,4.37-7.72,3.46-9.53s-3.3-2.32-3.88-2.44a4.28,4.28,0,0,1-1.74.17c.75.33,1.56.69,2,.93,1.16.58,2.26,2.19,1.53,4.8-.64,2.31-1.74,4.85-5,6.08s-6.48,2.24-8.19.52a1.6,1.6,0,0,1-.48-1.27c.07-1.47,1.84-3.24,2.73-4l-5.68-4.46c-1,1-3.87,3.52-6.08,2s-2.08-2.34-.94-5.63c.14-.43.31-.91.49-1.45,1.42-4.27,4.7-10.33,6.1-10.68.87-.21,3.57,2.16,8,7.05l.42.58a4.82,4.82,0,0,1-.05-1,75.39,75.39,0,0,0-7.17-7.42A2.46,2.46,0,0,0,280.72,274.44Zm.72,15.94a.51.51,0,0,1,.31.11l6.51,5.1a.51.51,0,0,1,.19.39.52.52,0,0,1-.18.4c-.77.62-2.77,2.52-2.83,3.72a.63.63,0,0,0,.18.52c1.29,1.29,4.12.38,7.14-.76,2.86-1.07,3.81-3.23,4.42-5.41h0c.56-2-.16-3.2-1-3.63s-3.65-1.64-3.68-1.65a.68.68,0,0,1-.21-.17l-4-5.49c-2.83-3.1-6.36-6.57-7.09-6.7-.66.28-3.71,5.21-5.31,10-.18.55-.35,1-.5,1.47-1.1,3.21-1.15,3.33.56,4.47,1.88,1.26,5.07-2.18,5.1-2.22A.52.52,0,0,1,281.44,290.38Z" style="fill:#263238"></path><path d="M303,276.92a.48.48,0,0,1-.26-.07.5.5,0,0,1-.17-.69c4.36-7.11,8.54-7.42,8.72-7.43a.47.47,0,0,1,.52.47.49.49,0,0,1-.46.53h0s-3.87.34-7.93,6.95A.47.47,0,0,1,303,276.92Z" style="fill:#263238"></path><path d="M296.91,267.71h-.05a19.89,19.89,0,0,1-8.1-2.77.5.5,0,1,1,.56-.84,19.32,19.32,0,0,0,7.64,2.62.5.5,0,0,1,0,1Z" style="fill:#263238"></path><path d="M312,283.22a.51.51,0,0,1-.31-.11,17.51,17.51,0,0,1-2.83-4,.5.5,0,0,1,.88-.47,16.4,16.4,0,0,0,2.57,3.67.49.49,0,0,1,.08.7A.51.51,0,0,1,312,283.22Z" style="fill:#263238"></path><path d="M220.65,239.89H221a2.63,2.63,0,0,1,2.63,2.63V357.6a0,0,0,0,1,0,0h-3a0,0,0,0,1,0,0V239.89A0,0,0,0,1,220.65,239.89Z" style="fill:#D3E317"></path><path d="M223.66,358.1h-3a.5.5,0,0,1-.5-.5V239.89a.5.5,0,0,1,.5-.5H221a3.13,3.13,0,0,1,3.13,3.13V357.6A.5.5,0,0,1,223.66,358.1Zm-2.51-1h2V242.52a2.12,2.12,0,0,0-2-2.12Z" style="fill:#263238"></path><path d="M296.22,400.71s15.57-7.45,21.28-7.23,8.11,3.07,11.84,8.55,6.14,15.8,5.49,18.87-4.87,6.24-4.87,6.24H297.31s-2.45-15.92-3.09-19.09S296.22,400.71,296.22,400.71Z" style="fill:#D3E317"></path><path d="M330,427.63H297.31a.49.49,0,0,1-.49-.42c0-.16-2.46-15.94-3.09-19.06-.67-3.33,1.95-7.53,2.06-7.7a.55.55,0,0,1,.21-.19c.64-.3,15.74-7.48,21.51-7.28s8.3,3,12.25,8.77c3.79,5.58,6.23,16.08,5.56,19.25s-4.88,6.4-5.06,6.53A.45.45,0,0,1,330,427.63Zm-32.22-1h32.05c.7-.55,4-3.28,4.55-5.84.63-2.94-1.81-13.18-5.41-18.48-3.84-5.64-6.08-8.13-11.45-8.33-5.21-.23-19.38,6.4-20.91,7.12-.41.69-2.39,4.21-1.86,6.85C295.28,410.8,297.35,424.08,297.74,426.63Z" style="fill:#263238"></path><path d="M326.27,426.82a25.18,25.18,0,0,0,1.32-12.94c-1.32-6.58-11.85-13.17-14.7-13.82s-10.09,1.31-10.09,1.31L290.07,406s-16.89-6.58-17.55-7-11.18-6.58-13.38-5.27-11.41,11-16.67,18.65-9.21,12.73-8.78,13.38,2.42,1.1,3.08,1.1,24.78,1.32,24.78,1.32,4.83,2,6.37,2,18.2-3.29,18.2-3.29,9.57.32,11.19.32h1.62Z" style="fill:#fff"></path><path d="M267.92,430.61c-1.53,0-5.7-1.66-6.48-2-8.36-.46-24.16-1.31-24.67-1.31s-2.89-.41-3.49-1.32c-.46-.69.26-1.82,4.52-7.85,1.25-1.77,2.69-3.81,4.26-6.09,5.44-7.94,14.62-17.47,16.82-18.79,2.64-1.58,13.81,5.2,13.92,5.27.59.36,10.59,4.3,17.28,6.91l12.55-4.55c.34-.09,7.43-2,10.37-1.33,3.2.74,13.74,7.5,15.08,14.21A25.35,25.35,0,0,1,326.73,427a.48.48,0,0,1-.45.31l-29,.31c-1.56,0-10.27-.28-11.14-.31C284.93,427.57,269.45,430.61,267.92,430.61Zm-33.75-5.09a5.65,5.65,0,0,0,2.6.8c.66,0,23.83,1.26,24.81,1.32a.41.41,0,0,1,.16,0c1.32.54,5,1.94,6.18,1.94s13.48-2.37,18.11-3.28h.11c.1,0,9.58.31,11.17.31h1.62l27-.31A24.61,24.61,0,0,0,327.1,414c-1.25-6.21-11.38-12.75-14.32-13.43-2.7-.62-9.78,1.3-9.85,1.32l-12.69,4.59a.53.53,0,0,1-.35,0c-2.83-1.11-17-6.63-17.64-7.07-1.67-1.12-11.14-6.28-12.85-5.26-2.09,1.26-11.25,10.81-16.52,18.5-1.56,2.29-3,4.34-4.27,6.11C236.42,421.84,234.34,424.78,234.17,425.52Zm92.1,1.3h0Z" style="fill:#263238"></path><path d="M241.59,426.82s12.73-15.36,13.38-16.23,9.44-7.24,9.44-7.24" style="fill:#fff"></path><path d="M241.59,427.32a.56.56,0,0,1-.32-.11.51.51,0,0,1-.06-.71c.12-.15,12.72-15.36,13.36-16.21s8.07-6.28,9.54-7.35a.5.5,0,0,1,.59.81c-3.37,2.44-8.88,6.54-9.33,7.14-.65.87-12.87,15.62-13.39,16.25A.5.5,0,0,1,241.59,427.32Z" style="fill:#263238"></path><polyline points="249.93 427.48 262.87 415.85 272.3 410.59" style="fill:#fff"></polyline><path d="M249.93,428a.48.48,0,0,1-.37-.17.49.49,0,0,1,0-.7l13-11.63a.2.2,0,0,1,.09-.06l9.43-5.27a.5.5,0,0,1,.68.19.49.49,0,0,1-.19.68l-9.39,5.24-12.9,11.59A.46.46,0,0,1,249.93,428Z" style="fill:#263238"></path><polyline points="261.56 428.14 270.33 422.43 283.93 416.07" style="fill:#fff"></polyline><path d="M261.56,428.64a.48.48,0,0,1-.42-.23.49.49,0,0,1,.14-.69l8.78-5.71,13.66-6.39a.5.5,0,1,1,.42.9l-13.6,6.37-8.71,5.67A.56.56,0,0,1,261.56,428.64Z" style="fill:#263238"></path><path d="M286.67,413.89A32.84,32.84,0,0,1,289.2,417" style="fill:#fff"></path><path d="M289.2,417.45a.49.49,0,0,1-.41-.21,30.62,30.62,0,0,0-2.49-3,.5.5,0,0,1,.74-.68,32.38,32.38,0,0,1,2.56,3.11.51.51,0,0,1-.11.7A.52.52,0,0,1,289.2,417.45Z" style="fill:#263238"></path><path d="M270.55,399.84s6.43,4.79,12.05,10" style="fill:#fff"></path><path d="M282.6,410.34a.51.51,0,0,1-.34-.13c-5.54-5.13-11.95-9.92-12-10a.5.5,0,0,1,.6-.8c.06,0,6.51,4.87,12.09,10a.5.5,0,0,1,0,.71A.48.48,0,0,1,282.6,410.34Z" style="fill:#263238"></path><path d="M298.93,427.14a12.51,12.51,0,0,0,3.65-5.37" style="fill:#fff"></path><path d="M298.94,427.63a.5.5,0,0,1-.39-.18.49.49,0,0,1,.07-.7,12.19,12.19,0,0,0,3.48-5.11.5.5,0,0,1,.61-.35.51.51,0,0,1,.35.62,12.85,12.85,0,0,1-3.81,5.61A.45.45,0,0,1,298.94,427.63Z" style="fill:#263238"></path></g><g id="freepik--glass-2--inject-3"><path d="M217.46,421.73V389.66S219,380.4,223.23,378c0,0,19.31-9.05,19.43-26.18H189.24a26.14,26.14,0,0,0,15.88,24.31,14.4,14.4,0,0,1,8.72,12.56c0,.33,0,.65,0,1-.17,4.77-.06,24.89,0,32-1.36.33-5.16,1.27-9,2.34a83.17,83.17,0,0,1-12.8,1.9v1.52h47.07V426a83.17,83.17,0,0,1-12.8-1.9C222.6,423,218.9,422.09,217.46,421.73Z" style="fill:#fff"></path><path d="M239.12,428H192.05a.5.5,0,0,1-.5-.5V426a.51.51,0,0,1,.47-.5,82.47,82.47,0,0,0,12.7-1.88c3.48-1,6.95-1.85,8.6-2.25,0-8.29-.14-27,0-31.68,0-.31,0-.63,0-.94a13.92,13.92,0,0,0-8.42-12.13,26.63,26.63,0,0,1-16.18-24.76.48.48,0,0,1,.13-.34.77.77,0,0,1,.38-.17h53.4a.46.46,0,0,1,.33.13.52.52,0,0,1,.18.39c-.12,17.24-19.52,26.53-19.72,26.62-3.93,2.25-5.47,11.21-5.49,11.3v31.6c1.65.41,5.09,1.28,8.5,2.23a82.3,82.3,0,0,0,12.7,1.88.5.5,0,0,1,.46.5v1.52A.5.5,0,0,1,239.12,428Zm-46.57-1h46.07v-.56a78.39,78.39,0,0,1-12.43-1.88c-3.68-1-7.42-2-8.85-2.31a.5.5,0,0,1-.38-.49V389.66c.07-.47,1.64-9.6,6-12.11.23-.1,18.69-9,19.17-25.25H189.73a25.67,25.67,0,0,0,15.59,23.36,14.92,14.92,0,0,1,9,13c0,.33,0,.67,0,1-.17,4.83-.06,25.74,0,32a.48.48,0,0,1-.38.48c-1.44.35-5.18,1.29-8.95,2.34a78.48,78.48,0,0,1-12.44,1.88ZM218,421.73h0Z" style="fill:#263238"></path><path d="M206.25,374.81c4.69,1.73,7.27,7,8,9.66.25.89.54,1.5,1.47,1.5h0c.94,0,1.21-.74,1.45-1.65.66-2.45,2.69-6.51,5.3-7.92,0,0,16.8-7.47,17.37-21.61H192.05A21.71,21.71,0,0,0,206.25,374.81Z" style="fill:#D3E317"></path><path d="M215.72,386.47c-1.43,0-1.77-1.21-1.95-1.86-.7-2.5-3.2-7.67-7.69-9.33h0a22.32,22.32,0,0,1-14.53-20.48.54.54,0,0,1,.14-.36.55.55,0,0,1,.36-.15h47.79a.52.52,0,0,1,.36.16.52.52,0,0,1,.14.36c-.58,14.28-17.5,22-17.67,22.05-2.39,1.29-4.38,5.22-5,7.59C217.45,385.21,217.11,386.47,215.72,386.47Zm-23.16-31.18a21.31,21.31,0,0,0,13.86,19h0c4.87,1.8,7.57,7.33,8.31,10,.27,1,.49,1.13,1,1.13s.69-.26,1-1.28c.63-2.37,2.7-6.69,5.54-8.23.2-.09,16.14-7.34,17.08-20.67Z" style="fill:#263238"></path></g><g id="freepik--glass-1--inject-3"><path d="M142.29,428H110.64a.5.5,0,0,1-.5-.47L107,383.64a.53.53,0,0,1,.13-.38.52.52,0,0,1,.37-.16h38a.48.48,0,0,1,.36.16.5.5,0,0,1,.14.38l-3.17,43.9A.5.5,0,0,1,142.29,428Zm-31.18-1h30.72l3.09-42.91H108Z" style="fill:#263238"></path><polygon points="139.54 424.82 113.39 424.82 111.82 400.1 141.12 400.1 139.54 424.82" style="fill:#D3E317"></polygon><path d="M139.54,425.33H113.39a.51.51,0,0,1-.5-.47l-1.57-24.73a.5.5,0,0,1,.13-.37.52.52,0,0,1,.37-.16h29.3a.48.48,0,0,1,.36.16.47.47,0,0,1,.14.37L140,424.86A.5.5,0,0,1,139.54,425.33Zm-25.68-1h25.22l1.5-23.73H112.35Z" style="fill:#263238"></path><path d="M118.86,421.1a.51.51,0,0,1-.5-.49l-.68-22a.5.5,0,0,1,.48-.52.51.51,0,0,1,.52.48l.68,22a.51.51,0,0,1-.49.52Z" style="fill:#263238"></path><path d="M118,396.34a.5.5,0,0,1-.5-.48l-.13-4.22a.5.5,0,0,1,.48-.52.51.51,0,0,1,.52.49l.13,4.22a.49.49,0,0,1-.48.51Z" style="fill:#263238"></path><path d="M131.16,422.36a.51.51,0,0,1-.5-.5V405.45a.5.5,0,0,1,.5-.5.5.5,0,0,1,.5.5v16.41A.5.5,0,0,1,131.16,422.36Z" style="fill:#263238"></path></g><g id="freepik--bottle-1--inject-3"><rect x="387.89" y="345.54" width="16.47" height="19.76" style="fill:#cfcfcf"></rect><path d="M404.36,365.8H387.89a.5.5,0,0,1-.5-.5V345.54a.51.51,0,0,1,.5-.5h16.47a.5.5,0,0,1,.5.5V365.3A.5.5,0,0,1,404.36,365.8Zm-16-1h15.47V346H388.39Z" style="fill:#263238"></path><path d="M411.49,382.87h-7.13V364.76H387.89v18.11h-7.12a4.47,4.47,0,0,0-4.47,4.46v39.74H416V387.33A4.46,4.46,0,0,0,411.49,382.87Z" style="fill:#fff"></path><path d="M416,427.57H376.3a.5.5,0,0,1-.5-.5V387.33a5,5,0,0,1,5-5h6.62V364.76a.5.5,0,0,1,.5-.5h16.47a.5.5,0,0,1,.5.5v17.61h6.63a5,5,0,0,1,5,5v39.74A.5.5,0,0,1,416,427.57Zm-39.15-1h38.65V387.33a4,4,0,0,0-4-4h-7.13a.5.5,0,0,1-.5-.5V365.26H388.39v17.61a.5.5,0,0,1-.5.5h-7.12a4,4,0,0,0-4,4Z" style="fill:#263238"></path><path d="M379.43,423.94V387.33a1.34,1.34,0,0,1,1.34-1.33H391V371.9h10.21V386h10.26a1.34,1.34,0,0,1,1.33,1.33v36.61Z" style="fill:#D3E317"></path><path d="M412.82,424.44H379.43a.5.5,0,0,1-.5-.5V387.33a1.84,1.84,0,0,1,1.84-1.83h9.75V371.9a.51.51,0,0,1,.5-.5h10.21a.5.5,0,0,1,.5.5v13.6h9.76a1.83,1.83,0,0,1,1.83,1.83v36.61A.5.5,0,0,1,412.82,424.44Zm-32.89-1h32.39V387.33a.83.83,0,0,0-.83-.83H401.23a.5.5,0,0,1-.5-.5V372.4h-9.21V386a.5.5,0,0,1-.5.5H380.77a.84.84,0,0,0-.84.83Z" style="fill:#263238"></path><rect x="382.4" y="398.79" width="26.9" height="17.57" style="fill:#fff"></rect><path d="M409.3,416.86H382.4a.5.5,0,0,1-.5-.5V398.79a.51.51,0,0,1,.5-.5h26.9a.5.5,0,0,1,.5.5v17.57A.5.5,0,0,1,409.3,416.86Zm-26.4-1h25.9V399.29H382.9Z" style="fill:#263238"></path></g><g id="freepik--cocktail-shaker--inject-3"><polygon points="358.51 407.31 347.76 407.31 342.38 376.29 363.89 376.29 358.51 407.31" style="fill:#cfcfcf"></polygon><path d="M358.51,407.81H347.76a.51.51,0,0,1-.5-.42l-5.37-31A.47.47,0,0,1,342,376a.49.49,0,0,1,.38-.18h21.51a.49.49,0,0,1,.38.18.47.47,0,0,1,.11.41l-5.37,31A.51.51,0,0,1,358.51,407.81Zm-10.33-1h9.91l5.21-30H343Z" style="fill:#263238"></path><polygon points="358.73 376.29 354.27 407.31 357.6 407.31 362.06 376.29 358.73 376.29" style="fill:#263238"></polygon><rect x="340.76" y="374.87" width="24.76" height="3.13" style="fill:#cfcfcf"></rect><path d="M365.51,378.5H340.76a.5.5,0,0,1-.5-.5v-3.13a.5.5,0,0,1,.5-.5h24.75a.5.5,0,0,1,.5.5V378A.5.5,0,0,1,365.51,378.5Zm-24.25-1H365v-2.13H341.26Z" style="fill:#263238"></path><polygon points="358.51 407.59 347.76 407.59 344.53 426.35 361.74 426.35 358.51 407.59" style="fill:#cfcfcf"></polygon><path d="M361.74,426.85H344.53a.49.49,0,0,1-.38-.18.47.47,0,0,1-.11-.41l3.22-18.75a.51.51,0,0,1,.5-.42h10.75a.51.51,0,0,1,.5.42l3.22,18.75a.47.47,0,0,1-.11.41A.49.49,0,0,1,361.74,426.85Zm-16.62-1h16l-3.06-17.76h-9.91Z" style="fill:#263238"></path><rect x="343.23" y="424.98" width="19.81" height="2.5" style="fill:#cfcfcf"></rect><path d="M363,428H343.23a.5.5,0,0,1-.5-.5V425a.5.5,0,0,1,.5-.5H363a.5.5,0,0,1,.5.5v2.5A.5.5,0,0,1,363,428Zm-19.31-1h18.81v-1.5H343.73Z" style="fill:#263238"></path><polygon points="354.27 407.31 355.62 424.62 359.56 424.62 357.6 407.31 354.27 407.31" style="fill:#263238"></polygon></g></svg>
